<?xml version="1.0" encoding="utf-8" standalone="no"?>
<!DOCTYPE svg PUBLIC "-//W3C//DTD SVG 1.1//EN"
  "http://www.w3.org/Graphics/SVG/1.1/DTD/svg11.dtd">
<svg xmlns:xlink="http://www.w3.org/1999/xlink" width="460.8pt" height="345.6pt" viewBox="0 0 460.8 345.6" xmlns="http://www.w3.org/2000/svg" version="1.1">
 <metadata>
  <rdf:RDF xmlns:dc="http://purl.org/dc/elements/1.1/" xmlns:cc="http://creativecommons.org/ns#" xmlns:rdf="http://www.w3.org/1999/02/22-rdf-syntax-ns#">
   <cc:Work>
    <dc:type rdf:resource="http://purl.org/dc/dcmitype/StillImage"/>
    <dc:date>2025-01-12T18:29:03.065571</dc:date>
    <dc:format>image/svg+xml</dc:format>
    <dc:creator>
     <cc:Agent>
      <dc:title>Matplotlib v3.8.4, https://matplotlib.org/</dc:title>
     </cc:Agent>
    </dc:creator>
   </cc:Work>
  </rdf:RDF>
 </metadata>
 <defs>
  <style type="text/css">*{stroke-linejoin: round; stroke-linecap: butt}</style>
 </defs>
 <g id="figure_1">
  <g id="patch_1">
   <path d="M 0 345.6 
L 460.8 345.6 
L 460.8 0 
L 0 0 
z
" style="fill: #ffffff"/>
  </g>
  <g id="axes_1">
   <g id="patch_2">
    <path d="M 57.6 307.584 
L 414.72 307.584 
L 414.72 41.472 
L 57.6 41.472 
z
" style="fill: #ffffff"/>
   </g>
   <g id="matplotlib.axis_1">
    <g id="xtick_1">
     <g id="line2d_1">
      <path d="M 59.333491 307.584 
L 59.333491 41.472 
" clip-path="url(#pc1a408f4a4)" style="fill: none; stroke: #b0b0b0; stroke-width: 0.8; stroke-linecap: square"/>
     </g>
     <g id="line2d_2">
      <defs>
       <path id="m17b5b3fdc5" d="M 0 0 
L 0 3.5 
" style="stroke: #000000; stroke-width: 0.8"/>
      </defs>
      <g>
       <use xlink:href="#m17b5b3fdc5" x="59.333491" y="307.584" style="stroke: #000000; stroke-width: 0.8"/>
      </g>
     </g>
     <g id="text_1">
      <!-- 0.00 -->
      <g transform="translate(48.200678 322.182437) scale(0.1 -0.1)">
       <defs>
        <path id="DejaVuSans-30" d="M 2034 4250 
Q 1547 4250 1301 3770 
Q 1056 3291 1056 2328 
Q 1056 1369 1301 889 
Q 1547 409 2034 409 
Q 2525 409 2770 889 
Q 3016 1369 3016 2328 
Q 3016 3291 2770 3770 
Q 2525 4250 2034 4250 
z
M 2034 4750 
Q 2819 4750 3233 4129 
Q 3647 3509 3647 2328 
Q 3647 1150 3233 529 
Q 2819 -91 2034 -91 
Q 1250 -91 836 529 
Q 422 1150 422 2328 
Q 422 3509 836 4129 
Q 1250 4750 2034 4750 
z
" transform="scale(0.015625)"/>
        <path id="DejaVuSans-2e" d="M 684 794 
L 1344 794 
L 1344 0 
L 684 0 
L 684 794 
z
" transform="scale(0.015625)"/>
       </defs>
       <use xlink:href="#DejaVuSans-30"/>
       <use xlink:href="#DejaVuSans-2e" x="63.623047"/>
       <use xlink:href="#DejaVuSans-30" x="95.410156"/>
       <use xlink:href="#DejaVuSans-30" x="159.033203"/>
      </g>
     </g>
    </g>
    <g id="xtick_2">
     <g id="line2d_3">
      <path d="M 125.782522 307.584 
L 125.782522 41.472 
" clip-path="url(#pc1a408f4a4)" style="fill: none; stroke: #b0b0b0; stroke-width: 0.8; stroke-linecap: square"/>
     </g>
     <g id="line2d_4">
      <g>
       <use xlink:href="#m17b5b3fdc5" x="125.782522" y="307.584" style="stroke: #000000; stroke-width: 0.8"/>
      </g>
     </g>
     <g id="text_2">
      <!-- 0.05 -->
      <g transform="translate(114.64971 322.182437) scale(0.1 -0.1)">
       <defs>
        <path id="DejaVuSans-35" d="M 691 4666 
L 3169 4666 
L 3169 4134 
L 1269 4134 
L 1269 2991 
Q 1406 3038 1543 3061 
Q 1681 3084 1819 3084 
Q 2600 3084 3056 2656 
Q 3513 2228 3513 1497 
Q 3513 744 3044 326 
Q 2575 -91 1722 -91 
Q 1428 -91 1123 -41 
Q 819 9 494 109 
L 494 744 
Q 775 591 1075 516 
Q 1375 441 1709 441 
Q 2250 441 2565 725 
Q 2881 1009 2881 1497 
Q 2881 1984 2565 2268 
Q 2250 2553 1709 2553 
Q 1456 2553 1204 2497 
Q 953 2441 691 2322 
L 691 4666 
z
" transform="scale(0.015625)"/>
       </defs>
       <use xlink:href="#DejaVuSans-30"/>
       <use xlink:href="#DejaVuSans-2e" x="63.623047"/>
       <use xlink:href="#DejaVuSans-30" x="95.410156"/>
       <use xlink:href="#DejaVuSans-35" x="159.033203"/>
      </g>
     </g>
    </g>
    <g id="xtick_3">
     <g id="line2d_5">
      <path d="M 192.231553 307.584 
L 192.231553 41.472 
" clip-path="url(#pc1a408f4a4)" style="fill: none; stroke: #b0b0b0; stroke-width: 0.8; stroke-linecap: square"/>
     </g>
     <g id="line2d_6">
      <g>
       <use xlink:href="#m17b5b3fdc5" x="192.231553" y="307.584" style="stroke: #000000; stroke-width: 0.8"/>
      </g>
     </g>
     <g id="text_3">
      <!-- 0.10 -->
      <g transform="translate(181.098741 322.182437) scale(0.1 -0.1)">
       <defs>
        <path id="DejaVuSans-31" d="M 794 531 
L 1825 531 
L 1825 4091 
L 703 3866 
L 703 4441 
L 1819 4666 
L 2450 4666 
L 2450 531 
L 3481 531 
L 3481 0 
L 794 0 
L 794 531 
z
" transform="scale(0.015625)"/>
       </defs>
       <use xlink:href="#DejaVuSans-30"/>
       <use xlink:href="#DejaVuSans-2e" x="63.623047"/>
       <use xlink:href="#DejaVuSans-31" x="95.410156"/>
       <use xlink:href="#DejaVuSans-30" x="159.033203"/>
      </g>
     </g>
    </g>
    <g id="xtick_4">
     <g id="line2d_7">
      <path d="M 258.680584 307.584 
L 258.680584 41.472 
" clip-path="url(#pc1a408f4a4)" style="fill: none; stroke: #b0b0b0; stroke-width: 0.8; stroke-linecap: square"/>
     </g>
     <g id="line2d_8">
      <g>
       <use xlink:href="#m17b5b3fdc5" x="258.680584" y="307.584" style="stroke: #000000; stroke-width: 0.8"/>
      </g>
     </g>
     <g id="text_4">
      <!-- 0.15 -->
      <g transform="translate(247.547772 322.182437) scale(0.1 -0.1)">
       <use xlink:href="#DejaVuSans-30"/>
       <use xlink:href="#DejaVuSans-2e" x="63.623047"/>
       <use xlink:href="#DejaVuSans-31" x="95.410156"/>
       <use xlink:href="#DejaVuSans-35" x="159.033203"/>
      </g>
     </g>
    </g>
    <g id="xtick_5">
     <g id="line2d_9">
      <path d="M 325.129615 307.584 
L 325.129615 41.472 
" clip-path="url(#pc1a408f4a4)" style="fill: none; stroke: #b0b0b0; stroke-width: 0.8; stroke-linecap: square"/>
     </g>
     <g id="line2d_10">
      <g>
       <use xlink:href="#m17b5b3fdc5" x="325.129615" y="307.584" style="stroke: #000000; stroke-width: 0.8"/>
      </g>
     </g>
     <g id="text_5">
      <!-- 0.20 -->
      <g transform="translate(313.996803 322.182437) scale(0.1 -0.1)">
       <defs>
        <path id="DejaVuSans-32" d="M 1228 531 
L 3431 531 
L 3431 0 
L 469 0 
L 469 531 
Q 828 903 1448 1529 
Q 2069 2156 2228 2338 
Q 2531 2678 2651 2914 
Q 2772 3150 2772 3378 
Q 2772 3750 2511 3984 
Q 2250 4219 1831 4219 
Q 1534 4219 1204 4116 
Q 875 4013 500 3803 
L 500 4441 
Q 881 4594 1212 4672 
Q 1544 4750 1819 4750 
Q 2544 4750 2975 4387 
Q 3406 4025 3406 3419 
Q 3406 3131 3298 2873 
Q 3191 2616 2906 2266 
Q 2828 2175 2409 1742 
Q 1991 1309 1228 531 
z
" transform="scale(0.015625)"/>
       </defs>
       <use xlink:href="#DejaVuSans-30"/>
       <use xlink:href="#DejaVuSans-2e" x="63.623047"/>
       <use xlink:href="#DejaVuSans-32" x="95.410156"/>
       <use xlink:href="#DejaVuSans-30" x="159.033203"/>
      </g>
     </g>
    </g>
    <g id="xtick_6">
     <g id="line2d_11">
      <path d="M 391.578646 307.584 
L 391.578646 41.472 
" clip-path="url(#pc1a408f4a4)" style="fill: none; stroke: #b0b0b0; stroke-width: 0.8; stroke-linecap: square"/>
     </g>
     <g id="line2d_12">
      <g>
       <use xlink:href="#m17b5b3fdc5" x="391.578646" y="307.584" style="stroke: #000000; stroke-width: 0.8"/>
      </g>
     </g>
     <g id="text_6">
      <!-- 0.25 -->
      <g transform="translate(380.445834 322.182437) scale(0.1 -0.1)">
       <use xlink:href="#DejaVuSans-30"/>
       <use xlink:href="#DejaVuSans-2e" x="63.623047"/>
       <use xlink:href="#DejaVuSans-32" x="95.410156"/>
       <use xlink:href="#DejaVuSans-35" x="159.033203"/>
      </g>
     </g>
    </g>
    <g id="text_7">
     <!-- $C_D \quad [-]$ -->
     <g transform="translate(216.86 335.860562) scale(0.1 -0.1)">
      <defs>
       <path id="DejaVuSans-Oblique-43" d="M 4447 4306 
L 4319 3641 
Q 4019 3944 3683 4091 
Q 3347 4238 2956 4238 
Q 2422 4238 2017 3981 
Q 1613 3725 1319 3200 
Q 1131 2863 1032 2486 
Q 934 2109 934 1728 
Q 934 1091 1264 756 
Q 1594 422 2222 422 
Q 2656 422 3056 561 
Q 3456 700 3834 978 
L 3688 231 
Q 3316 72 2936 -9 
Q 2556 -91 2175 -91 
Q 1278 -91 773 396 
Q 269 884 269 1753 
Q 269 2309 461 2846 
Q 653 3384 1013 3828 
Q 1394 4300 1883 4525 
Q 2372 4750 3022 4750 
Q 3422 4750 3780 4639 
Q 4138 4528 4447 4306 
z
" transform="scale(0.015625)"/>
       <path id="DejaVuSans-Oblique-44" d="M 1081 4666 
L 2438 4666 
Q 3519 4666 4070 4208 
Q 4622 3750 4622 2847 
Q 4622 2250 4412 1698 
Q 4203 1147 3834 769 
Q 3463 381 2891 190 
Q 2319 0 1538 0 
L 172 0 
L 1081 4666 
z
M 1613 4147 
L 909 519 
L 1734 519 
Q 2794 519 3375 1128 
Q 3956 1738 3956 2847 
Q 3956 3519 3581 3833 
Q 3206 4147 2406 4147 
L 1613 4147 
z
" transform="scale(0.015625)"/>
       <path id="DejaVuSans-5b" d="M 550 4863 
L 1875 4863 
L 1875 4416 
L 1125 4416 
L 1125 -397 
L 1875 -397 
L 1875 -844 
L 550 -844 
L 550 4863 
z
" transform="scale(0.015625)"/>
       <path id="DejaVuSans-2212" d="M 678 2272 
L 4684 2272 
L 4684 1741 
L 678 1741 
L 678 2272 
z
" transform="scale(0.015625)"/>
       <path id="DejaVuSans-5d" d="M 1947 4863 
L 1947 -844 
L 622 -844 
L 622 -397 
L 1369 -397 
L 1369 4416 
L 622 4416 
L 622 4863 
L 1947 4863 
z
" transform="scale(0.015625)"/>
      </defs>
      <use xlink:href="#DejaVuSans-Oblique-43" transform="translate(0 0.015625)"/>
      <use xlink:href="#DejaVuSans-Oblique-44" transform="translate(69.824219 -16.390625) scale(0.7)"/>
      <use xlink:href="#DejaVuSans-5b" transform="translate(223.87207 0.015625)"/>
      <use xlink:href="#DejaVuSans-2212" transform="translate(262.885742 0.015625)"/>
      <use xlink:href="#DejaVuSans-5d" transform="translate(346.674805 0.015625)"/>
     </g>
    </g>
   </g>
   <g id="matplotlib.axis_2">
    <g id="ytick_1">
     <g id="line2d_13">
      <path d="M 57.6 296.226699 
L 414.72 296.226699 
" clip-path="url(#pc1a408f4a4)" style="fill: none; stroke: #b0b0b0; stroke-width: 0.8; stroke-linecap: square"/>
     </g>
     <g id="line2d_14">
      <defs>
       <path id="m24161f3d03" d="M 0 0 
L -3.5 0 
" style="stroke: #000000; stroke-width: 0.8"/>
      </defs>
      <g>
       <use xlink:href="#m24161f3d03" x="57.6" y="296.226699" style="stroke: #000000; stroke-width: 0.8"/>
      </g>
     </g>
     <g id="text_8">
      <!-- −0.4 -->
      <g transform="translate(26.317187 300.025918) scale(0.1 -0.1)">
       <defs>
        <path id="DejaVuSans-34" d="M 2419 4116 
L 825 1625 
L 2419 1625 
L 2419 4116 
z
M 2253 4666 
L 3047 4666 
L 3047 1625 
L 3713 1625 
L 3713 1100 
L 3047 1100 
L 3047 0 
L 2419 0 
L 2419 1100 
L 313 1100 
L 313 1709 
L 2253 4666 
z
" transform="scale(0.015625)"/>
       </defs>
       <use xlink:href="#DejaVuSans-2212"/>
       <use xlink:href="#DejaVuSans-30" x="83.789062"/>
       <use xlink:href="#DejaVuSans-2e" x="147.412109"/>
       <use xlink:href="#DejaVuSans-34" x="179.199219"/>
      </g>
     </g>
    </g>
    <g id="ytick_2">
     <g id="line2d_15">
      <path d="M 57.6 263.018319 
L 414.72 263.018319 
" clip-path="url(#pc1a408f4a4)" style="fill: none; stroke: #b0b0b0; stroke-width: 0.8; stroke-linecap: square"/>
     </g>
     <g id="line2d_16">
      <g>
       <use xlink:href="#m24161f3d03" x="57.6" y="263.018319" style="stroke: #000000; stroke-width: 0.8"/>
      </g>
     </g>
     <g id="text_9">
      <!-- −0.2 -->
      <g transform="translate(26.317187 266.817538) scale(0.1 -0.1)">
       <use xlink:href="#DejaVuSans-2212"/>
       <use xlink:href="#DejaVuSans-30" x="83.789062"/>
       <use xlink:href="#DejaVuSans-2e" x="147.412109"/>
       <use xlink:href="#DejaVuSans-32" x="179.199219"/>
      </g>
     </g>
    </g>
    <g id="ytick_3">
     <g id="line2d_17">
      <path d="M 57.6 229.809938 
L 414.72 229.809938 
" clip-path="url(#pc1a408f4a4)" style="fill: none; stroke: #b0b0b0; stroke-width: 0.8; stroke-linecap: square"/>
     </g>
     <g id="line2d_18">
      <g>
       <use xlink:href="#m24161f3d03" x="57.6" y="229.809938" style="stroke: #000000; stroke-width: 0.8"/>
      </g>
     </g>
     <g id="text_10">
      <!-- 0.0 -->
      <g transform="translate(34.696875 233.609157) scale(0.1 -0.1)">
       <use xlink:href="#DejaVuSans-30"/>
       <use xlink:href="#DejaVuSans-2e" x="63.623047"/>
       <use xlink:href="#DejaVuSans-30" x="95.410156"/>
      </g>
     </g>
    </g>
    <g id="ytick_4">
     <g id="line2d_19">
      <path d="M 57.6 196.601558 
L 414.72 196.601558 
" clip-path="url(#pc1a408f4a4)" style="fill: none; stroke: #b0b0b0; stroke-width: 0.8; stroke-linecap: square"/>
     </g>
     <g id="line2d_20">
      <g>
       <use xlink:href="#m24161f3d03" x="57.6" y="196.601558" style="stroke: #000000; stroke-width: 0.8"/>
      </g>
     </g>
     <g id="text_11">
      <!-- 0.2 -->
      <g transform="translate(34.696875 200.400777) scale(0.1 -0.1)">
       <use xlink:href="#DejaVuSans-30"/>
       <use xlink:href="#DejaVuSans-2e" x="63.623047"/>
       <use xlink:href="#DejaVuSans-32" x="95.410156"/>
      </g>
     </g>
    </g>
    <g id="ytick_5">
     <g id="line2d_21">
      <path d="M 57.6 163.393178 
L 414.72 163.393178 
" clip-path="url(#pc1a408f4a4)" style="fill: none; stroke: #b0b0b0; stroke-width: 0.8; stroke-linecap: square"/>
     </g>
     <g id="line2d_22">
      <g>
       <use xlink:href="#m24161f3d03" x="57.6" y="163.393178" style="stroke: #000000; stroke-width: 0.8"/>
      </g>
     </g>
     <g id="text_12">
      <!-- 0.4 -->
      <g transform="translate(34.696875 167.192397) scale(0.1 -0.1)">
       <use xlink:href="#DejaVuSans-30"/>
       <use xlink:href="#DejaVuSans-2e" x="63.623047"/>
       <use xlink:href="#DejaVuSans-34" x="95.410156"/>
      </g>
     </g>
    </g>
    <g id="ytick_6">
     <g id="line2d_23">
      <path d="M 57.6 130.184797 
L 414.72 130.184797 
" clip-path="url(#pc1a408f4a4)" style="fill: none; stroke: #b0b0b0; stroke-width: 0.8; stroke-linecap: square"/>
     </g>
     <g id="line2d_24">
      <g>
       <use xlink:href="#m24161f3d03" x="57.6" y="130.184797" style="stroke: #000000; stroke-width: 0.8"/>
      </g>
     </g>
     <g id="text_13">
      <!-- 0.6 -->
      <g transform="translate(34.696875 133.984016) scale(0.1 -0.1)">
       <defs>
        <path id="DejaVuSans-36" d="M 2113 2584 
Q 1688 2584 1439 2293 
Q 1191 2003 1191 1497 
Q 1191 994 1439 701 
Q 1688 409 2113 409 
Q 2538 409 2786 701 
Q 3034 994 3034 1497 
Q 3034 2003 2786 2293 
Q 2538 2584 2113 2584 
z
M 3366 4563 
L 3366 3988 
Q 3128 4100 2886 4159 
Q 2644 4219 2406 4219 
Q 1781 4219 1451 3797 
Q 1122 3375 1075 2522 
Q 1259 2794 1537 2939 
Q 1816 3084 2150 3084 
Q 2853 3084 3261 2657 
Q 3669 2231 3669 1497 
Q 3669 778 3244 343 
Q 2819 -91 2113 -91 
Q 1303 -91 875 529 
Q 447 1150 447 2328 
Q 447 3434 972 4092 
Q 1497 4750 2381 4750 
Q 2619 4750 2861 4703 
Q 3103 4656 3366 4563 
z
" transform="scale(0.015625)"/>
       </defs>
       <use xlink:href="#DejaVuSans-30"/>
       <use xlink:href="#DejaVuSans-2e" x="63.623047"/>
       <use xlink:href="#DejaVuSans-36" x="95.410156"/>
      </g>
     </g>
    </g>
    <g id="ytick_7">
     <g id="line2d_25">
      <path d="M 57.6 96.976417 
L 414.72 96.976417 
" clip-path="url(#pc1a408f4a4)" style="fill: none; stroke: #b0b0b0; stroke-width: 0.8; stroke-linecap: square"/>
     </g>
     <g id="line2d_26">
      <g>
       <use xlink:href="#m24161f3d03" x="57.6" y="96.976417" style="stroke: #000000; stroke-width: 0.8"/>
      </g>
     </g>
     <g id="text_14">
      <!-- 0.8 -->
      <g transform="translate(34.696875 100.775636) scale(0.1 -0.1)">
       <defs>
        <path id="DejaVuSans-38" d="M 2034 2216 
Q 1584 2216 1326 1975 
Q 1069 1734 1069 1313 
Q 1069 891 1326 650 
Q 1584 409 2034 409 
Q 2484 409 2743 651 
Q 3003 894 3003 1313 
Q 3003 1734 2745 1975 
Q 2488 2216 2034 2216 
z
M 1403 2484 
Q 997 2584 770 2862 
Q 544 3141 544 3541 
Q 544 4100 942 4425 
Q 1341 4750 2034 4750 
Q 2731 4750 3128 4425 
Q 3525 4100 3525 3541 
Q 3525 3141 3298 2862 
Q 3072 2584 2669 2484 
Q 3125 2378 3379 2068 
Q 3634 1759 3634 1313 
Q 3634 634 3220 271 
Q 2806 -91 2034 -91 
Q 1263 -91 848 271 
Q 434 634 434 1313 
Q 434 1759 690 2068 
Q 947 2378 1403 2484 
z
M 1172 3481 
Q 1172 3119 1398 2916 
Q 1625 2713 2034 2713 
Q 2441 2713 2670 2916 
Q 2900 3119 2900 3481 
Q 2900 3844 2670 4047 
Q 2441 4250 2034 4250 
Q 1625 4250 1398 4047 
Q 1172 3844 1172 3481 
z
" transform="scale(0.015625)"/>
       </defs>
       <use xlink:href="#DejaVuSans-30"/>
       <use xlink:href="#DejaVuSans-2e" x="63.623047"/>
       <use xlink:href="#DejaVuSans-38" x="95.410156"/>
      </g>
     </g>
    </g>
    <g id="ytick_8">
     <g id="line2d_27">
      <path d="M 57.6 63.768037 
L 414.72 63.768037 
" clip-path="url(#pc1a408f4a4)" style="fill: none; stroke: #b0b0b0; stroke-width: 0.8; stroke-linecap: square"/>
     </g>
     <g id="line2d_28">
      <g>
       <use xlink:href="#m24161f3d03" x="57.6" y="63.768037" style="stroke: #000000; stroke-width: 0.8"/>
      </g>
     </g>
     <g id="text_15">
      <!-- 1.0 -->
      <g transform="translate(34.696875 67.567256) scale(0.1 -0.1)">
       <use xlink:href="#DejaVuSans-31"/>
       <use xlink:href="#DejaVuSans-2e" x="63.623047"/>
       <use xlink:href="#DejaVuSans-30" x="95.410156"/>
      </g>
     </g>
    </g>
    <g id="text_16">
     <!-- $C_L \quad [-]$ -->
     <g transform="translate(20.2375 193.078) rotate(-90) scale(0.1 -0.1)">
      <defs>
       <path id="DejaVuSans-Oblique-4c" d="M 1075 4666 
L 1709 4666 
L 909 525 
L 3181 525 
L 3078 0 
L 172 0 
L 1075 4666 
z
" transform="scale(0.015625)"/>
      </defs>
      <use xlink:href="#DejaVuSans-Oblique-43" transform="translate(0 0.015625)"/>
      <use xlink:href="#DejaVuSans-Oblique-4c" transform="translate(69.824219 -16.390625) scale(0.7)"/>
      <use xlink:href="#DejaVuSans-5b" transform="translate(208.969727 0.015625)"/>
      <use xlink:href="#DejaVuSans-2212" transform="translate(247.983398 0.015625)"/>
      <use xlink:href="#DejaVuSans-5d" transform="translate(331.772461 0.015625)"/>
     </g>
    </g>
   </g>
   <g id="line2d_29">
    <path d="M 57.6 229.809938 
L 414.72 229.809938 
" clip-path="url(#pc1a408f4a4)" style="fill: none; stroke-dasharray: 5.55,2.4; stroke-dashoffset: 0; stroke: #000000; stroke-width: 1.5"/>
   </g>
   <g id="patch_3">
    <path d="M 57.6 307.584 
L 57.6 41.472 
" style="fill: none; stroke: #000000; stroke-width: 0.8; stroke-linejoin: miter; stroke-linecap: square"/>
   </g>
   <g id="patch_4">
    <path d="M 414.72 307.584 
L 414.72 41.472 
" style="fill: none; stroke: #000000; stroke-width: 0.8; stroke-linejoin: miter; stroke-linecap: square"/>
   </g>
   <g id="patch_5">
    <path d="M 57.6 307.584 
L 414.72 307.584 
" style="fill: none; stroke: #000000; stroke-width: 0.8; stroke-linejoin: miter; stroke-linecap: square"/>
   </g>
   <g id="patch_6">
    <path d="M 57.6 41.472 
L 414.72 41.472 
" style="fill: none; stroke: #000000; stroke-width: 0.8; stroke-linejoin: miter; stroke-linecap: square"/>
   </g>
   <g id="legend_1">
    <g id="patch_7">
     <path d="M 317.82 302.584 
L 407.72 302.584 
Q 409.72 302.584 409.72 300.584 
L 409.72 272.205875 
Q 409.72 270.205875 407.72 270.205875 
L 317.82 270.205875 
Q 315.82 270.205875 315.82 272.205875 
L 315.82 300.584 
Q 315.82 302.584 317.82 302.584 
z
" style="fill: #ffffff; opacity: 0.8; stroke: #cccccc; stroke-linejoin: miter"/>
    </g>
    <g id="line2d_30">
     <path d="M 319.82 278.305875 
L 329.82 278.305875 
L 339.82 278.305875 
" style="fill: none; stroke: #000000; stroke-width: 1.5; stroke-linecap: square"/>
     <defs>
      <path id="mdc568ced39" d="M 0 3 
C 0.795609 3 1.55874 2.683901 2.12132 2.12132 
C 2.683901 1.55874 3 0.795609 3 0 
C 3 -0.795609 2.683901 -1.55874 2.12132 -2.12132 
C 1.55874 -2.683901 0.795609 -3 0 -3 
C -0.795609 -3 -1.55874 -2.683901 -2.12132 -2.12132 
C -2.683901 -1.55874 -3 -0.795609 -3 0 
C -3 0.795609 -2.683901 1.55874 -2.12132 2.12132 
C -1.55874 2.683901 -0.795609 3 0 3 
z
" style="stroke: #000000"/>
     </defs>
     <g>
      <use xlink:href="#mdc568ced39" x="329.82" y="278.305875" style="fill: #17becf; stroke: #000000"/>
     </g>
    </g>
    <g id="text_17">
     <!-- $C_L$ 3D wing -->
     <g transform="translate(347.82 281.805875) scale(0.1 -0.1)">
      <defs>
       <path id="DejaVuSans-20" transform="scale(0.015625)"/>
       <path id="DejaVuSans-33" d="M 2597 2516 
Q 3050 2419 3304 2112 
Q 3559 1806 3559 1356 
Q 3559 666 3084 287 
Q 2609 -91 1734 -91 
Q 1441 -91 1130 -33 
Q 819 25 488 141 
L 488 750 
Q 750 597 1062 519 
Q 1375 441 1716 441 
Q 2309 441 2620 675 
Q 2931 909 2931 1356 
Q 2931 1769 2642 2001 
Q 2353 2234 1838 2234 
L 1294 2234 
L 1294 2753 
L 1863 2753 
Q 2328 2753 2575 2939 
Q 2822 3125 2822 3475 
Q 2822 3834 2567 4026 
Q 2313 4219 1838 4219 
Q 1578 4219 1281 4162 
Q 984 4106 628 3988 
L 628 4550 
Q 988 4650 1302 4700 
Q 1616 4750 1894 4750 
Q 2613 4750 3031 4423 
Q 3450 4097 3450 3541 
Q 3450 3153 3228 2886 
Q 3006 2619 2597 2516 
z
" transform="scale(0.015625)"/>
       <path id="DejaVuSans-44" d="M 1259 4147 
L 1259 519 
L 2022 519 
Q 2988 519 3436 956 
Q 3884 1394 3884 2338 
Q 3884 3275 3436 3711 
Q 2988 4147 2022 4147 
L 1259 4147 
z
M 628 4666 
L 1925 4666 
Q 3281 4666 3915 4102 
Q 4550 3538 4550 2338 
Q 4550 1131 3912 565 
Q 3275 0 1925 0 
L 628 0 
L 628 4666 
z
" transform="scale(0.015625)"/>
       <path id="DejaVuSans-77" d="M 269 3500 
L 844 3500 
L 1563 769 
L 2278 3500 
L 2956 3500 
L 3675 769 
L 4391 3500 
L 4966 3500 
L 4050 0 
L 3372 0 
L 2619 2869 
L 1863 0 
L 1184 0 
L 269 3500 
z
" transform="scale(0.015625)"/>
       <path id="DejaVuSans-69" d="M 603 3500 
L 1178 3500 
L 1178 0 
L 603 0 
L 603 3500 
z
M 603 4863 
L 1178 4863 
L 1178 4134 
L 603 4134 
L 603 4863 
z
" transform="scale(0.015625)"/>
       <path id="DejaVuSans-6e" d="M 3513 2113 
L 3513 0 
L 2938 0 
L 2938 2094 
Q 2938 2591 2744 2837 
Q 2550 3084 2163 3084 
Q 1697 3084 1428 2787 
Q 1159 2491 1159 1978 
L 1159 0 
L 581 0 
L 581 3500 
L 1159 3500 
L 1159 2956 
Q 1366 3272 1645 3428 
Q 1925 3584 2291 3584 
Q 2894 3584 3203 3211 
Q 3513 2838 3513 2113 
z
" transform="scale(0.015625)"/>
       <path id="DejaVuSans-67" d="M 2906 1791 
Q 2906 2416 2648 2759 
Q 2391 3103 1925 3103 
Q 1463 3103 1205 2759 
Q 947 2416 947 1791 
Q 947 1169 1205 825 
Q 1463 481 1925 481 
Q 2391 481 2648 825 
Q 2906 1169 2906 1791 
z
M 3481 434 
Q 3481 -459 3084 -895 
Q 2688 -1331 1869 -1331 
Q 1566 -1331 1297 -1286 
Q 1028 -1241 775 -1147 
L 775 -588 
Q 1028 -725 1275 -790 
Q 1522 -856 1778 -856 
Q 2344 -856 2625 -561 
Q 2906 -266 2906 331 
L 2906 616 
Q 2728 306 2450 153 
Q 2172 0 1784 0 
Q 1141 0 747 490 
Q 353 981 353 1791 
Q 353 2603 747 3093 
Q 1141 3584 1784 3584 
Q 2172 3584 2450 3431 
Q 2728 3278 2906 2969 
L 2906 3500 
L 3481 3500 
L 3481 434 
z
" transform="scale(0.015625)"/>
      </defs>
      <use xlink:href="#DejaVuSans-Oblique-43" transform="translate(0 0.015625)"/>
      <use xlink:href="#DejaVuSans-Oblique-4c" transform="translate(69.824219 -16.390625) scale(0.7)"/>
      <use xlink:href="#DejaVuSans-20" transform="translate(111.557617 0.015625)"/>
      <use xlink:href="#DejaVuSans-33" transform="translate(143.344727 0.015625)"/>
      <use xlink:href="#DejaVuSans-44" transform="translate(202.467773 0.015625)"/>
      <use xlink:href="#DejaVuSans-20" transform="translate(279.469727 0.015625)"/>
      <use xlink:href="#DejaVuSans-77" transform="translate(311.256836 0.015625)"/>
      <use xlink:href="#DejaVuSans-69" transform="translate(393.043945 0.015625)"/>
      <use xlink:href="#DejaVuSans-6e" transform="translate(420.827148 0.015625)"/>
      <use xlink:href="#DejaVuSans-67" transform="translate(484.206055 0.015625)"/>
     </g>
    </g>
    <g id="line2d_31">
     <path d="M 319.82 293.004312 
L 329.82 293.004312 
L 339.82 293.004312 
" style="fill: none; stroke: #000000; stroke-width: 1.5; stroke-linecap: square"/>
     <defs>
      <path id="m60d44a59c4" d="M 0 -3 
L -3 3 
L 3 3 
z
" style="stroke: #000000; stroke-linejoin: miter"/>
     </defs>
     <g>
      <use xlink:href="#m60d44a59c4" x="329.82" y="293.004312" style="fill: #d62728; stroke: #000000; stroke-linejoin: miter"/>
     </g>
    </g>
    <g id="text_18">
     <!-- $C_l$ 2D airfoil -->
     <g transform="translate(347.82 296.504312) scale(0.1 -0.1)">
      <defs>
       <path id="DejaVuSans-Oblique-6c" d="M 1172 4863 
L 1747 4863 
L 800 0 
L 225 0 
L 1172 4863 
z
" transform="scale(0.015625)"/>
       <path id="DejaVuSans-61" d="M 2194 1759 
Q 1497 1759 1228 1600 
Q 959 1441 959 1056 
Q 959 750 1161 570 
Q 1363 391 1709 391 
Q 2188 391 2477 730 
Q 2766 1069 2766 1631 
L 2766 1759 
L 2194 1759 
z
M 3341 1997 
L 3341 0 
L 2766 0 
L 2766 531 
Q 2569 213 2275 61 
Q 1981 -91 1556 -91 
Q 1019 -91 701 211 
Q 384 513 384 1019 
Q 384 1609 779 1909 
Q 1175 2209 1959 2209 
L 2766 2209 
L 2766 2266 
Q 2766 2663 2505 2880 
Q 2244 3097 1772 3097 
Q 1472 3097 1187 3025 
Q 903 2953 641 2809 
L 641 3341 
Q 956 3463 1253 3523 
Q 1550 3584 1831 3584 
Q 2591 3584 2966 3190 
Q 3341 2797 3341 1997 
z
" transform="scale(0.015625)"/>
       <path id="DejaVuSans-72" d="M 2631 2963 
Q 2534 3019 2420 3045 
Q 2306 3072 2169 3072 
Q 1681 3072 1420 2755 
Q 1159 2438 1159 1844 
L 1159 0 
L 581 0 
L 581 3500 
L 1159 3500 
L 1159 2956 
Q 1341 3275 1631 3429 
Q 1922 3584 2338 3584 
Q 2397 3584 2469 3576 
Q 2541 3569 2628 3553 
L 2631 2963 
z
" transform="scale(0.015625)"/>
       <path id="DejaVuSans-66" d="M 2375 4863 
L 2375 4384 
L 1825 4384 
Q 1516 4384 1395 4259 
Q 1275 4134 1275 3809 
L 1275 3500 
L 2222 3500 
L 2222 3053 
L 1275 3053 
L 1275 0 
L 697 0 
L 697 3053 
L 147 3053 
L 147 3500 
L 697 3500 
L 697 3744 
Q 697 4328 969 4595 
Q 1241 4863 1831 4863 
L 2375 4863 
z
" transform="scale(0.015625)"/>
       <path id="DejaVuSans-6f" d="M 1959 3097 
Q 1497 3097 1228 2736 
Q 959 2375 959 1747 
Q 959 1119 1226 758 
Q 1494 397 1959 397 
Q 2419 397 2687 759 
Q 2956 1122 2956 1747 
Q 2956 2369 2687 2733 
Q 2419 3097 1959 3097 
z
M 1959 3584 
Q 2709 3584 3137 3096 
Q 3566 2609 3566 1747 
Q 3566 888 3137 398 
Q 2709 -91 1959 -91 
Q 1206 -91 779 398 
Q 353 888 353 1747 
Q 353 2609 779 3096 
Q 1206 3584 1959 3584 
z
" transform="scale(0.015625)"/>
       <path id="DejaVuSans-6c" d="M 603 4863 
L 1178 4863 
L 1178 0 
L 603 0 
L 603 4863 
z
" transform="scale(0.015625)"/>
      </defs>
      <use xlink:href="#DejaVuSans-Oblique-43" transform="translate(0 0.015625)"/>
      <use xlink:href="#DejaVuSans-Oblique-6c" transform="translate(69.824219 -16.390625) scale(0.7)"/>
      <use xlink:href="#DejaVuSans-20" transform="translate(92.006836 0.015625)"/>
      <use xlink:href="#DejaVuSans-32" transform="translate(123.793945 0.015625)"/>
      <use xlink:href="#DejaVuSans-44" transform="translate(187.416992 0.015625)"/>
      <use xlink:href="#DejaVuSans-20" transform="translate(264.418945 0.015625)"/>
      <use xlink:href="#DejaVuSans-61" transform="translate(296.206055 0.015625)"/>
      <use xlink:href="#DejaVuSans-69" transform="translate(357.485352 0.015625)"/>
      <use xlink:href="#DejaVuSans-72" transform="translate(385.268555 0.015625)"/>
      <use xlink:href="#DejaVuSans-66" transform="translate(426.381836 0.015625)"/>
      <use xlink:href="#DejaVuSans-6f" transform="translate(461.586914 0.015625)"/>
      <use xlink:href="#DejaVuSans-69" transform="translate(522.768555 0.015625)"/>
      <use xlink:href="#DejaVuSans-6c" transform="translate(550.551758 0.015625)"/>
     </g>
    </g>
   </g>
   <g id="line2d_32">
    <path d="M 93.608755 295.488 
L 82.607526 276.094605 
L 79.448613 260.686911 
L 74.455091 248.979647 
L 75.530748 237.359958 
L 73.832727 223.203624 
L 76.371187 207.265582 
L 76.371187 207.265582 
L 74.459221 185.399352 
L 74.224832 171.059358 
L 75.883064 156.711519 
L 74.617893 141.645877 
L 76.137473 125.762098 
L 75.932988 113.402662 
L 79.081477 97.440278 
L 79.196131 83.670651 
L 84.466998 71.23794 
L 84.466998 62.821823 
L 86.271521 64.056206 
L 89.787715 63.859362 
L 88.312497 61.170832 
L 91.616889 59.26491 
L 91.616889 57.119091 
L 91.326316 54.229104 
L 91.326316 55.900609 
L 95.387435 57.62713 
L 95.387435 59.983936 
L 100.147133 63.549089 
L 100.147133 66.293708 
L 96.310195 66.018392 
L 96.310195 78.382163 
L 99.011713 74.897314 
L 99.011713 74.980651 
L 101.26974 71.018016 
L 101.26974 65.900246 
L 107.338822 66.001079 
L 107.338822 63.246915 
L 107.984317 59.54998 
L 107.984317 57.180868 
L 106.896057 55.251153 
L 106.896057 53.568 
L 109.243546 56.27852 
L 109.243546 58.443047 
L 113.599932 60.31036 
L 113.599932 62.887696 
L 111.784417 62.865991 
L 111.784417 61.548099 
L 114.082381 70.012875 
L 112.679016 64.514398 
L 114.967451 64.62641 
L 115.108562 67.676318 
" clip-path="url(#pc1a408f4a4)" style="fill: none; stroke: #000000; stroke-width: 1.5; stroke-linecap: square"/>
    <g clip-path="url(#pc1a408f4a4)">
     <use xlink:href="#m60d44a59c4" x="93.608755" y="295.488" style="fill: #d62728; stroke: #000000; stroke-linejoin: miter"/>
     <use xlink:href="#m60d44a59c4" x="82.607526" y="276.094605" style="fill: #d62728; stroke: #000000; stroke-linejoin: miter"/>
     <use xlink:href="#m60d44a59c4" x="79.448613" y="260.686911" style="fill: #d62728; stroke: #000000; stroke-linejoin: miter"/>
     <use xlink:href="#m60d44a59c4" x="74.455091" y="248.979647" style="fill: #d62728; stroke: #000000; stroke-linejoin: miter"/>
     <use xlink:href="#m60d44a59c4" x="75.530748" y="237.359958" style="fill: #d62728; stroke: #000000; stroke-linejoin: miter"/>
     <use xlink:href="#m60d44a59c4" x="73.832727" y="223.203624" style="fill: #d62728; stroke: #000000; stroke-linejoin: miter"/>
     <use xlink:href="#m60d44a59c4" x="76.371187" y="207.265582" style="fill: #d62728; stroke: #000000; stroke-linejoin: miter"/>
     <use xlink:href="#m60d44a59c4" x="76.371187" y="207.265582" style="fill: #d62728; stroke: #000000; stroke-linejoin: miter"/>
     <use xlink:href="#m60d44a59c4" x="74.459221" y="185.399352" style="fill: #d62728; stroke: #000000; stroke-linejoin: miter"/>
     <use xlink:href="#m60d44a59c4" x="74.224832" y="171.059358" style="fill: #d62728; stroke: #000000; stroke-linejoin: miter"/>
     <use xlink:href="#m60d44a59c4" x="75.883064" y="156.711519" style="fill: #d62728; stroke: #000000; stroke-linejoin: miter"/>
     <use xlink:href="#m60d44a59c4" x="74.617893" y="141.645877" style="fill: #d62728; stroke: #000000; stroke-linejoin: miter"/>
     <use xlink:href="#m60d44a59c4" x="76.137473" y="125.762098" style="fill: #d62728; stroke: #000000; stroke-linejoin: miter"/>
     <use xlink:href="#m60d44a59c4" x="75.932988" y="113.402662" style="fill: #d62728; stroke: #000000; stroke-linejoin: miter"/>
     <use xlink:href="#m60d44a59c4" x="79.081477" y="97.440278" style="fill: #d62728; stroke: #000000; stroke-linejoin: miter"/>
     <use xlink:href="#m60d44a59c4" x="79.196131" y="83.670651" style="fill: #d62728; stroke: #000000; stroke-linejoin: miter"/>
     <use xlink:href="#m60d44a59c4" x="84.466998" y="71.23794" style="fill: #d62728; stroke: #000000; stroke-linejoin: miter"/>
     <use xlink:href="#m60d44a59c4" x="84.466998" y="62.821823" style="fill: #d62728; stroke: #000000; stroke-linejoin: miter"/>
     <use xlink:href="#m60d44a59c4" x="86.271521" y="64.056206" style="fill: #d62728; stroke: #000000; stroke-linejoin: miter"/>
     <use xlink:href="#m60d44a59c4" x="89.787715" y="63.859362" style="fill: #d62728; stroke: #000000; stroke-linejoin: miter"/>
     <use xlink:href="#m60d44a59c4" x="88.312497" y="61.170832" style="fill: #d62728; stroke: #000000; stroke-linejoin: miter"/>
     <use xlink:href="#m60d44a59c4" x="91.616889" y="59.26491" style="fill: #d62728; stroke: #000000; stroke-linejoin: miter"/>
     <use xlink:href="#m60d44a59c4" x="91.616889" y="57.119091" style="fill: #d62728; stroke: #000000; stroke-linejoin: miter"/>
     <use xlink:href="#m60d44a59c4" x="91.326316" y="54.229104" style="fill: #d62728; stroke: #000000; stroke-linejoin: miter"/>
     <use xlink:href="#m60d44a59c4" x="91.326316" y="55.900609" style="fill: #d62728; stroke: #000000; stroke-linejoin: miter"/>
     <use xlink:href="#m60d44a59c4" x="95.387435" y="57.62713" style="fill: #d62728; stroke: #000000; stroke-linejoin: miter"/>
     <use xlink:href="#m60d44a59c4" x="95.387435" y="59.983936" style="fill: #d62728; stroke: #000000; stroke-linejoin: miter"/>
     <use xlink:href="#m60d44a59c4" x="100.147133" y="63.549089" style="fill: #d62728; stroke: #000000; stroke-linejoin: miter"/>
     <use xlink:href="#m60d44a59c4" x="100.147133" y="66.293708" style="fill: #d62728; stroke: #000000; stroke-linejoin: miter"/>
     <use xlink:href="#m60d44a59c4" x="96.310195" y="66.018392" style="fill: #d62728; stroke: #000000; stroke-linejoin: miter"/>
     <use xlink:href="#m60d44a59c4" x="96.310195" y="78.382163" style="fill: #d62728; stroke: #000000; stroke-linejoin: miter"/>
     <use xlink:href="#m60d44a59c4" x="99.011713" y="74.897314" style="fill: #d62728; stroke: #000000; stroke-linejoin: miter"/>
     <use xlink:href="#m60d44a59c4" x="99.011713" y="74.980651" style="fill: #d62728; stroke: #000000; stroke-linejoin: miter"/>
     <use xlink:href="#m60d44a59c4" x="101.26974" y="71.018016" style="fill: #d62728; stroke: #000000; stroke-linejoin: miter"/>
     <use xlink:href="#m60d44a59c4" x="101.26974" y="65.900246" style="fill: #d62728; stroke: #000000; stroke-linejoin: miter"/>
     <use xlink:href="#m60d44a59c4" x="107.338822" y="66.001079" style="fill: #d62728; stroke: #000000; stroke-linejoin: miter"/>
     <use xlink:href="#m60d44a59c4" x="107.338822" y="63.246915" style="fill: #d62728; stroke: #000000; stroke-linejoin: miter"/>
     <use xlink:href="#m60d44a59c4" x="107.984317" y="59.54998" style="fill: #d62728; stroke: #000000; stroke-linejoin: miter"/>
     <use xlink:href="#m60d44a59c4" x="107.984317" y="57.180868" style="fill: #d62728; stroke: #000000; stroke-linejoin: miter"/>
     <use xlink:href="#m60d44a59c4" x="106.896057" y="55.251153" style="fill: #d62728; stroke: #000000; stroke-linejoin: miter"/>
     <use xlink:href="#m60d44a59c4" x="106.896057" y="53.568" style="fill: #d62728; stroke: #000000; stroke-linejoin: miter"/>
     <use xlink:href="#m60d44a59c4" x="109.243546" y="56.27852" style="fill: #d62728; stroke: #000000; stroke-linejoin: miter"/>
     <use xlink:href="#m60d44a59c4" x="109.243546" y="58.443047" style="fill: #d62728; stroke: #000000; stroke-linejoin: miter"/>
     <use xlink:href="#m60d44a59c4" x="113.599932" y="60.31036" style="fill: #d62728; stroke: #000000; stroke-linejoin: miter"/>
     <use xlink:href="#m60d44a59c4" x="113.599932" y="62.887696" style="fill: #d62728; stroke: #000000; stroke-linejoin: miter"/>
     <use xlink:href="#m60d44a59c4" x="111.784417" y="62.865991" style="fill: #d62728; stroke: #000000; stroke-linejoin: miter"/>
     <use xlink:href="#m60d44a59c4" x="111.784417" y="61.548099" style="fill: #d62728; stroke: #000000; stroke-linejoin: miter"/>
     <use xlink:href="#m60d44a59c4" x="114.082381" y="70.012875" style="fill: #d62728; stroke: #000000; stroke-linejoin: miter"/>
     <use xlink:href="#m60d44a59c4" x="112.679016" y="64.514398" style="fill: #d62728; stroke: #000000; stroke-linejoin: miter"/>
     <use xlink:href="#m60d44a59c4" x="114.967451" y="64.62641" style="fill: #d62728; stroke: #000000; stroke-linejoin: miter"/>
     <use xlink:href="#m60d44a59c4" x="115.108562" y="67.676318" style="fill: #d62728; stroke: #000000; stroke-linejoin: miter"/>
    </g>
   </g>
   <g id="line2d_33">
    <path d="M 92.903566 280.057451 
L 78.610428 253.65631 
L 75.393682 243.874022 
L 74.591771 233.951024 
L 74.880179 223.198334 
L 76.119054 212.002336 
L 78.106906 195.532492 
L 82.008377 182.670937 
L 86.278166 170.823097 
L 90.051023 158.879837 
L 96.231031 146.283533 
L 103.071384 133.52216 
L 110.330557 121.438637 
L 118.893399 110.501146 
L 129.553092 99.345638 
L 128.919749 98.914031 
L 134.888953 94.30247 
L 140.422684 87.981927 
L 140.919837 88.812785 
L 147.215591 84.052567 
L 153.153114 80.473836 
L 151.127681 82.664853 
L 158.717233 78.428423 
L 163.910657 76.024316 
L 165.293732 74.955118 
L 171.881289 71.134226 
L 171.807049 71.790606 
L 178.194975 70.534263 
L 177.947836 69.659416 
L 184.460792 69.271694 
L 186.080914 68.065823 
L 195.009334 67.508799 
L 194.352165 69.00567 
L 207.569422 69.162571 
L 207.059092 69.197295 
L 222.569635 69.360074 
L 223.80596 69.816714 
L 341.775637 75.356185 
L 237.644944 72.587794 
L 364.402972 82.416284 
L 364.392414 80.856406 
L 380.86646 86.913476 
L 379.591378 88.056955 
L 388.050087 95.708822 
L 392.211609 94.190996 
L 398.487273 99.281366 
" clip-path="url(#pc1a408f4a4)" style="fill: none; stroke: #000000; stroke-width: 1.5; stroke-linecap: square"/>
    <g clip-path="url(#pc1a408f4a4)">
     <use xlink:href="#mdc568ced39" x="92.903566" y="280.057451" style="fill: #17becf; stroke: #000000"/>
     <use xlink:href="#mdc568ced39" x="78.610428" y="253.65631" style="fill: #17becf; stroke: #000000"/>
     <use xlink:href="#mdc568ced39" x="75.393682" y="243.874022" style="fill: #17becf; stroke: #000000"/>
     <use xlink:href="#mdc568ced39" x="74.591771" y="233.951024" style="fill: #17becf; stroke: #000000"/>
     <use xlink:href="#mdc568ced39" x="74.880179" y="223.198334" style="fill: #17becf; stroke: #000000"/>
     <use xlink:href="#mdc568ced39" x="76.119054" y="212.002336" style="fill: #17becf; stroke: #000000"/>
     <use xlink:href="#mdc568ced39" x="78.106906" y="195.532492" style="fill: #17becf; stroke: #000000"/>
     <use xlink:href="#mdc568ced39" x="82.008377" y="182.670937" style="fill: #17becf; stroke: #000000"/>
     <use xlink:href="#mdc568ced39" x="86.278166" y="170.823097" style="fill: #17becf; stroke: #000000"/>
     <use xlink:href="#mdc568ced39" x="90.051023" y="158.879837" style="fill: #17becf; stroke: #000000"/>
     <use xlink:href="#mdc568ced39" x="96.231031" y="146.283533" style="fill: #17becf; stroke: #000000"/>
     <use xlink:href="#mdc568ced39" x="103.071384" y="133.52216" style="fill: #17becf; stroke: #000000"/>
     <use xlink:href="#mdc568ced39" x="110.330557" y="121.438637" style="fill: #17becf; stroke: #000000"/>
     <use xlink:href="#mdc568ced39" x="118.893399" y="110.501146" style="fill: #17becf; stroke: #000000"/>
     <use xlink:href="#mdc568ced39" x="129.553092" y="99.345638" style="fill: #17becf; stroke: #000000"/>
     <use xlink:href="#mdc568ced39" x="128.919749" y="98.914031" style="fill: #17becf; stroke: #000000"/>
     <use xlink:href="#mdc568ced39" x="134.888953" y="94.30247" style="fill: #17becf; stroke: #000000"/>
     <use xlink:href="#mdc568ced39" x="140.422684" y="87.981927" style="fill: #17becf; stroke: #000000"/>
     <use xlink:href="#mdc568ced39" x="140.919837" y="88.812785" style="fill: #17becf; stroke: #000000"/>
     <use xlink:href="#mdc568ced39" x="147.215591" y="84.052567" style="fill: #17becf; stroke: #000000"/>
     <use xlink:href="#mdc568ced39" x="153.153114" y="80.473836" style="fill: #17becf; stroke: #000000"/>
     <use xlink:href="#mdc568ced39" x="151.127681" y="82.664853" style="fill: #17becf; stroke: #000000"/>
     <use xlink:href="#mdc568ced39" x="158.717233" y="78.428423" style="fill: #17becf; stroke: #000000"/>
     <use xlink:href="#mdc568ced39" x="163.910657" y="76.024316" style="fill: #17becf; stroke: #000000"/>
     <use xlink:href="#mdc568ced39" x="165.293732" y="74.955118" style="fill: #17becf; stroke: #000000"/>
     <use xlink:href="#mdc568ced39" x="171.881289" y="71.134226" style="fill: #17becf; stroke: #000000"/>
     <use xlink:href="#mdc568ced39" x="171.807049" y="71.790606" style="fill: #17becf; stroke: #000000"/>
     <use xlink:href="#mdc568ced39" x="178.194975" y="70.534263" style="fill: #17becf; stroke: #000000"/>
     <use xlink:href="#mdc568ced39" x="177.947836" y="69.659416" style="fill: #17becf; stroke: #000000"/>
     <use xlink:href="#mdc568ced39" x="184.460792" y="69.271694" style="fill: #17becf; stroke: #000000"/>
     <use xlink:href="#mdc568ced39" x="186.080914" y="68.065823" style="fill: #17becf; stroke: #000000"/>
     <use xlink:href="#mdc568ced39" x="195.009334" y="67.508799" style="fill: #17becf; stroke: #000000"/>
     <use xlink:href="#mdc568ced39" x="194.352165" y="69.00567" style="fill: #17becf; stroke: #000000"/>
     <use xlink:href="#mdc568ced39" x="207.569422" y="69.162571" style="fill: #17becf; stroke: #000000"/>
     <use xlink:href="#mdc568ced39" x="207.059092" y="69.197295" style="fill: #17becf; stroke: #000000"/>
     <use xlink:href="#mdc568ced39" x="222.569635" y="69.360074" style="fill: #17becf; stroke: #000000"/>
     <use xlink:href="#mdc568ced39" x="223.80596" y="69.816714" style="fill: #17becf; stroke: #000000"/>
     <use xlink:href="#mdc568ced39" x="341.775637" y="75.356185" style="fill: #17becf; stroke: #000000"/>
     <use xlink:href="#mdc568ced39" x="237.644944" y="72.587794" style="fill: #17becf; stroke: #000000"/>
     <use xlink:href="#mdc568ced39" x="364.402972" y="82.416284" style="fill: #17becf; stroke: #000000"/>
     <use xlink:href="#mdc568ced39" x="364.392414" y="80.856406" style="fill: #17becf; stroke: #000000"/>
     <use xlink:href="#mdc568ced39" x="380.86646" y="86.913476" style="fill: #17becf; stroke: #000000"/>
     <use xlink:href="#mdc568ced39" x="379.591378" y="88.056955" style="fill: #17becf; stroke: #000000"/>
     <use xlink:href="#mdc568ced39" x="388.050087" y="95.708822" style="fill: #17becf; stroke: #000000"/>
     <use xlink:href="#mdc568ced39" x="392.211609" y="94.190996" style="fill: #17becf; stroke: #000000"/>
     <use xlink:href="#mdc568ced39" x="398.487273" y="99.281366" style="fill: #17becf; stroke: #000000"/>
    </g>
   </g>
  </g>
 </g>
 <defs>
  <clipPath id="pc1a408f4a4">
   <rect x="57.6" y="41.472" width="357.12" height="266.112"/>
  </clipPath>
 </defs>
</svg>
