<?xml version="1.0" encoding="utf-8" standalone="no"?>
<!DOCTYPE svg PUBLIC "-//W3C//DTD SVG 1.1//EN"
  "http://www.w3.org/Graphics/SVG/1.1/DTD/svg11.dtd">
<svg xmlns:xlink="http://www.w3.org/1999/xlink" width="460.8pt" height="345.6pt" viewBox="0 0 460.8 345.6" xmlns="http://www.w3.org/2000/svg" version="1.1">
 <metadata>
  <rdf:RDF xmlns:dc="http://purl.org/dc/elements/1.1/" xmlns:cc="http://creativecommons.org/ns#" xmlns:rdf="http://www.w3.org/1999/02/22-rdf-syntax-ns#">
   <cc:Work>
    <dc:type rdf:resource="http://purl.org/dc/dcmitype/StillImage"/>
    <dc:date>2025-01-12T18:30:06.222166</dc:date>
    <dc:format>image/svg+xml</dc:format>
    <dc:creator>
     <cc:Agent>
      <dc:title>Matplotlib v3.8.4, https://matplotlib.org/</dc:title>
     </cc:Agent>
    </dc:creator>
   </cc:Work>
  </rdf:RDF>
 </metadata>
 <defs>
  <style type="text/css">*{stroke-linejoin: round; stroke-linecap: butt}</style>
 </defs>
 <g id="figure_1">
  <g id="patch_1">
   <path d="M 0 345.6 
L 460.8 345.6 
L 460.8 0 
L 0 0 
z
" style="fill: #ffffff"/>
  </g>
  <g id="axes_1">
   <g id="patch_2">
    <path d="M 57.6 307.584 
L 414.72 307.584 
L 414.72 41.472 
L 57.6 41.472 
z
" style="fill: #ffffff"/>
   </g>
   <g id="matplotlib.axis_1">
    <g id="xtick_1">
     <g id="line2d_1">
      <path d="M 73.832727 307.584 
L 73.832727 41.472 
" clip-path="url(#p734b274a38)" style="fill: none; stroke: #b0b0b0; stroke-width: 0.8; stroke-linecap: square"/>
     </g>
     <g id="line2d_2">
      <defs>
       <path id="m59dc3a99a9" d="M 0 0 
L 0 3.5 
" style="stroke: #000000; stroke-width: 0.8"/>
      </defs>
      <g>
       <use xlink:href="#m59dc3a99a9" x="73.832727" y="307.584" style="stroke: #000000; stroke-width: 0.8"/>
      </g>
     </g>
     <g id="text_1">
      <!-- −6 -->
      <g transform="translate(66.461634 322.182437) scale(0.1 -0.1)">
       <defs>
        <path id="DejaVuSans-2212" d="M 678 2272 
L 4684 2272 
L 4684 1741 
L 678 1741 
L 678 2272 
z
" transform="scale(0.015625)"/>
        <path id="DejaVuSans-36" d="M 2113 2584 
Q 1688 2584 1439 2293 
Q 1191 2003 1191 1497 
Q 1191 994 1439 701 
Q 1688 409 2113 409 
Q 2538 409 2786 701 
Q 3034 994 3034 1497 
Q 3034 2003 2786 2293 
Q 2538 2584 2113 2584 
z
M 3366 4563 
L 3366 3988 
Q 3128 4100 2886 4159 
Q 2644 4219 2406 4219 
Q 1781 4219 1451 3797 
Q 1122 3375 1075 2522 
Q 1259 2794 1537 2939 
Q 1816 3084 2150 3084 
Q 2853 3084 3261 2657 
Q 3669 2231 3669 1497 
Q 3669 778 3244 343 
Q 2819 -91 2113 -91 
Q 1303 -91 875 529 
Q 447 1150 447 2328 
Q 447 3434 972 4092 
Q 1497 4750 2381 4750 
Q 2619 4750 2861 4703 
Q 3103 4656 3366 4563 
z
" transform="scale(0.015625)"/>
       </defs>
       <use xlink:href="#DejaVuSans-2212"/>
       <use xlink:href="#DejaVuSans-36" x="83.789062"/>
      </g>
     </g>
    </g>
    <g id="xtick_2">
     <g id="line2d_3">
      <path d="M 101.462901 307.584 
L 101.462901 41.472 
" clip-path="url(#p734b274a38)" style="fill: none; stroke: #b0b0b0; stroke-width: 0.8; stroke-linecap: square"/>
     </g>
     <g id="line2d_4">
      <g>
       <use xlink:href="#m59dc3a99a9" x="101.462901" y="307.584" style="stroke: #000000; stroke-width: 0.8"/>
      </g>
     </g>
     <g id="text_2">
      <!-- −4 -->
      <g transform="translate(94.091808 322.182437) scale(0.1 -0.1)">
       <defs>
        <path id="DejaVuSans-34" d="M 2419 4116 
L 825 1625 
L 2419 1625 
L 2419 4116 
z
M 2253 4666 
L 3047 4666 
L 3047 1625 
L 3713 1625 
L 3713 1100 
L 3047 1100 
L 3047 0 
L 2419 0 
L 2419 1100 
L 313 1100 
L 313 1709 
L 2253 4666 
z
" transform="scale(0.015625)"/>
       </defs>
       <use xlink:href="#DejaVuSans-2212"/>
       <use xlink:href="#DejaVuSans-34" x="83.789062"/>
      </g>
     </g>
    </g>
    <g id="xtick_3">
     <g id="line2d_5">
      <path d="M 129.093075 307.584 
L 129.093075 41.472 
" clip-path="url(#p734b274a38)" style="fill: none; stroke: #b0b0b0; stroke-width: 0.8; stroke-linecap: square"/>
     </g>
     <g id="line2d_6">
      <g>
       <use xlink:href="#m59dc3a99a9" x="129.093075" y="307.584" style="stroke: #000000; stroke-width: 0.8"/>
      </g>
     </g>
     <g id="text_3">
      <!-- −2 -->
      <g transform="translate(121.721982 322.182437) scale(0.1 -0.1)">
       <defs>
        <path id="DejaVuSans-32" d="M 1228 531 
L 3431 531 
L 3431 0 
L 469 0 
L 469 531 
Q 828 903 1448 1529 
Q 2069 2156 2228 2338 
Q 2531 2678 2651 2914 
Q 2772 3150 2772 3378 
Q 2772 3750 2511 3984 
Q 2250 4219 1831 4219 
Q 1534 4219 1204 4116 
Q 875 4013 500 3803 
L 500 4441 
Q 881 4594 1212 4672 
Q 1544 4750 1819 4750 
Q 2544 4750 2975 4387 
Q 3406 4025 3406 3419 
Q 3406 3131 3298 2873 
Q 3191 2616 2906 2266 
Q 2828 2175 2409 1742 
Q 1991 1309 1228 531 
z
" transform="scale(0.015625)"/>
       </defs>
       <use xlink:href="#DejaVuSans-2212"/>
       <use xlink:href="#DejaVuSans-32" x="83.789062"/>
      </g>
     </g>
    </g>
    <g id="xtick_4">
     <g id="line2d_7">
      <path d="M 156.72325 307.584 
L 156.72325 41.472 
" clip-path="url(#p734b274a38)" style="fill: none; stroke: #b0b0b0; stroke-width: 0.8; stroke-linecap: square"/>
     </g>
     <g id="line2d_8">
      <g>
       <use xlink:href="#m59dc3a99a9" x="156.72325" y="307.584" style="stroke: #000000; stroke-width: 0.8"/>
      </g>
     </g>
     <g id="text_4">
      <!-- 0 -->
      <g transform="translate(153.542 322.182437) scale(0.1 -0.1)">
       <defs>
        <path id="DejaVuSans-30" d="M 2034 4250 
Q 1547 4250 1301 3770 
Q 1056 3291 1056 2328 
Q 1056 1369 1301 889 
Q 1547 409 2034 409 
Q 2525 409 2770 889 
Q 3016 1369 3016 2328 
Q 3016 3291 2770 3770 
Q 2525 4250 2034 4250 
z
M 2034 4750 
Q 2819 4750 3233 4129 
Q 3647 3509 3647 2328 
Q 3647 1150 3233 529 
Q 2819 -91 2034 -91 
Q 1250 -91 836 529 
Q 422 1150 422 2328 
Q 422 3509 836 4129 
Q 1250 4750 2034 4750 
z
" transform="scale(0.015625)"/>
       </defs>
       <use xlink:href="#DejaVuSans-30"/>
      </g>
     </g>
    </g>
    <g id="xtick_5">
     <g id="line2d_9">
      <path d="M 184.353424 307.584 
L 184.353424 41.472 
" clip-path="url(#p734b274a38)" style="fill: none; stroke: #b0b0b0; stroke-width: 0.8; stroke-linecap: square"/>
     </g>
     <g id="line2d_10">
      <g>
       <use xlink:href="#m59dc3a99a9" x="184.353424" y="307.584" style="stroke: #000000; stroke-width: 0.8"/>
      </g>
     </g>
     <g id="text_5">
      <!-- 2 -->
      <g transform="translate(181.172174 322.182437) scale(0.1 -0.1)">
       <use xlink:href="#DejaVuSans-32"/>
      </g>
     </g>
    </g>
    <g id="xtick_6">
     <g id="line2d_11">
      <path d="M 211.983598 307.584 
L 211.983598 41.472 
" clip-path="url(#p734b274a38)" style="fill: none; stroke: #b0b0b0; stroke-width: 0.8; stroke-linecap: square"/>
     </g>
     <g id="line2d_12">
      <g>
       <use xlink:href="#m59dc3a99a9" x="211.983598" y="307.584" style="stroke: #000000; stroke-width: 0.8"/>
      </g>
     </g>
     <g id="text_6">
      <!-- 4 -->
      <g transform="translate(208.802348 322.182437) scale(0.1 -0.1)">
       <use xlink:href="#DejaVuSans-34"/>
      </g>
     </g>
    </g>
    <g id="xtick_7">
     <g id="line2d_13">
      <path d="M 239.613772 307.584 
L 239.613772 41.472 
" clip-path="url(#p734b274a38)" style="fill: none; stroke: #b0b0b0; stroke-width: 0.8; stroke-linecap: square"/>
     </g>
     <g id="line2d_14">
      <g>
       <use xlink:href="#m59dc3a99a9" x="239.613772" y="307.584" style="stroke: #000000; stroke-width: 0.8"/>
      </g>
     </g>
     <g id="text_7">
      <!-- 6 -->
      <g transform="translate(236.432522 322.182437) scale(0.1 -0.1)">
       <use xlink:href="#DejaVuSans-36"/>
      </g>
     </g>
    </g>
    <g id="xtick_8">
     <g id="line2d_15">
      <path d="M 267.243946 307.584 
L 267.243946 41.472 
" clip-path="url(#p734b274a38)" style="fill: none; stroke: #b0b0b0; stroke-width: 0.8; stroke-linecap: square"/>
     </g>
     <g id="line2d_16">
      <g>
       <use xlink:href="#m59dc3a99a9" x="267.243946" y="307.584" style="stroke: #000000; stroke-width: 0.8"/>
      </g>
     </g>
     <g id="text_8">
      <!-- 8 -->
      <g transform="translate(264.062696 322.182437) scale(0.1 -0.1)">
       <defs>
        <path id="DejaVuSans-38" d="M 2034 2216 
Q 1584 2216 1326 1975 
Q 1069 1734 1069 1313 
Q 1069 891 1326 650 
Q 1584 409 2034 409 
Q 2484 409 2743 651 
Q 3003 894 3003 1313 
Q 3003 1734 2745 1975 
Q 2488 2216 2034 2216 
z
M 1403 2484 
Q 997 2584 770 2862 
Q 544 3141 544 3541 
Q 544 4100 942 4425 
Q 1341 4750 2034 4750 
Q 2731 4750 3128 4425 
Q 3525 4100 3525 3541 
Q 3525 3141 3298 2862 
Q 3072 2584 2669 2484 
Q 3125 2378 3379 2068 
Q 3634 1759 3634 1313 
Q 3634 634 3220 271 
Q 2806 -91 2034 -91 
Q 1263 -91 848 271 
Q 434 634 434 1313 
Q 434 1759 690 2068 
Q 947 2378 1403 2484 
z
M 1172 3481 
Q 1172 3119 1398 2916 
Q 1625 2713 2034 2713 
Q 2441 2713 2670 2916 
Q 2900 3119 2900 3481 
Q 2900 3844 2670 4047 
Q 2441 4250 2034 4250 
Q 1625 4250 1398 4047 
Q 1172 3844 1172 3481 
z
" transform="scale(0.015625)"/>
       </defs>
       <use xlink:href="#DejaVuSans-38"/>
      </g>
     </g>
    </g>
    <g id="xtick_9">
     <g id="line2d_17">
      <path d="M 294.87412 307.584 
L 294.87412 41.472 
" clip-path="url(#p734b274a38)" style="fill: none; stroke: #b0b0b0; stroke-width: 0.8; stroke-linecap: square"/>
     </g>
     <g id="line2d_18">
      <g>
       <use xlink:href="#m59dc3a99a9" x="294.87412" y="307.584" style="stroke: #000000; stroke-width: 0.8"/>
      </g>
     </g>
     <g id="text_9">
      <!-- 10 -->
      <g transform="translate(288.51162 322.182437) scale(0.1 -0.1)">
       <defs>
        <path id="DejaVuSans-31" d="M 794 531 
L 1825 531 
L 1825 4091 
L 703 3866 
L 703 4441 
L 1819 4666 
L 2450 4666 
L 2450 531 
L 3481 531 
L 3481 0 
L 794 0 
L 794 531 
z
" transform="scale(0.015625)"/>
       </defs>
       <use xlink:href="#DejaVuSans-31"/>
       <use xlink:href="#DejaVuSans-30" x="63.623047"/>
      </g>
     </g>
    </g>
    <g id="xtick_10">
     <g id="line2d_19">
      <path d="M 322.504294 307.584 
L 322.504294 41.472 
" clip-path="url(#p734b274a38)" style="fill: none; stroke: #b0b0b0; stroke-width: 0.8; stroke-linecap: square"/>
     </g>
     <g id="line2d_20">
      <g>
       <use xlink:href="#m59dc3a99a9" x="322.504294" y="307.584" style="stroke: #000000; stroke-width: 0.8"/>
      </g>
     </g>
     <g id="text_10">
      <!-- 12 -->
      <g transform="translate(316.141794 322.182437) scale(0.1 -0.1)">
       <use xlink:href="#DejaVuSans-31"/>
       <use xlink:href="#DejaVuSans-32" x="63.623047"/>
      </g>
     </g>
    </g>
    <g id="xtick_11">
     <g id="line2d_21">
      <path d="M 350.134468 307.584 
L 350.134468 41.472 
" clip-path="url(#p734b274a38)" style="fill: none; stroke: #b0b0b0; stroke-width: 0.8; stroke-linecap: square"/>
     </g>
     <g id="line2d_22">
      <g>
       <use xlink:href="#m59dc3a99a9" x="350.134468" y="307.584" style="stroke: #000000; stroke-width: 0.8"/>
      </g>
     </g>
     <g id="text_11">
      <!-- 14 -->
      <g transform="translate(343.771968 322.182437) scale(0.1 -0.1)">
       <use xlink:href="#DejaVuSans-31"/>
       <use xlink:href="#DejaVuSans-34" x="63.623047"/>
      </g>
     </g>
    </g>
    <g id="xtick_12">
     <g id="line2d_23">
      <path d="M 377.764642 307.584 
L 377.764642 41.472 
" clip-path="url(#p734b274a38)" style="fill: none; stroke: #b0b0b0; stroke-width: 0.8; stroke-linecap: square"/>
     </g>
     <g id="line2d_24">
      <g>
       <use xlink:href="#m59dc3a99a9" x="377.764642" y="307.584" style="stroke: #000000; stroke-width: 0.8"/>
      </g>
     </g>
     <g id="text_12">
      <!-- 16 -->
      <g transform="translate(371.402142 322.182437) scale(0.1 -0.1)">
       <use xlink:href="#DejaVuSans-31"/>
       <use xlink:href="#DejaVuSans-36" x="63.623047"/>
      </g>
     </g>
    </g>
    <g id="xtick_13">
     <g id="line2d_25">
      <path d="M 405.394816 307.584 
L 405.394816 41.472 
" clip-path="url(#p734b274a38)" style="fill: none; stroke: #b0b0b0; stroke-width: 0.8; stroke-linecap: square"/>
     </g>
     <g id="line2d_26">
      <g>
       <use xlink:href="#m59dc3a99a9" x="405.394816" y="307.584" style="stroke: #000000; stroke-width: 0.8"/>
      </g>
     </g>
     <g id="text_13">
      <!-- 18 -->
      <g transform="translate(399.032316 322.182437) scale(0.1 -0.1)">
       <use xlink:href="#DejaVuSans-31"/>
       <use xlink:href="#DejaVuSans-38" x="63.623047"/>
      </g>
     </g>
    </g>
    <g id="text_14">
     <!-- $\alpha \quad [\deg]$ -->
     <g transform="translate(214.66 335.862125) scale(0.1 -0.1)">
      <defs>
       <path id="DejaVuSans-Oblique-3b1" d="M 2619 1628 
L 2622 2350 
Q 2625 3088 2069 3091 
Q 1653 3094 1394 2747 
Q 1069 2319 959 1747 
Q 825 1059 994 731 
Q 1169 397 1547 397 
Q 1966 397 2319 1063 
L 2619 1628 
z
M 2166 3578 
Q 3141 3594 3128 2584 
Q 3128 2584 3616 3500 
L 4128 3500 
L 3119 1603 
L 3109 919 
Q 3109 766 3194 638 
Q 3291 488 3391 488 
L 3669 488 
L 3575 0 
L 3228 0 
Q 2934 0 2722 263 
Q 2622 394 2619 669 
Q 2416 334 2066 50 
Q 1900 -81 1453 -78 
Q 722 -72 456 397 
Q 184 884 353 1747 
Q 534 2675 1009 3097 
Q 1544 3569 2166 3578 
z
" transform="scale(0.015625)"/>
       <path id="DejaVuSans-5b" d="M 550 4863 
L 1875 4863 
L 1875 4416 
L 1125 4416 
L 1125 -397 
L 1875 -397 
L 1875 -844 
L 550 -844 
L 550 4863 
z
" transform="scale(0.015625)"/>
       <path id="DejaVuSans-64" d="M 2906 2969 
L 2906 4863 
L 3481 4863 
L 3481 0 
L 2906 0 
L 2906 525 
Q 2725 213 2448 61 
Q 2172 -91 1784 -91 
Q 1150 -91 751 415 
Q 353 922 353 1747 
Q 353 2572 751 3078 
Q 1150 3584 1784 3584 
Q 2172 3584 2448 3432 
Q 2725 3281 2906 2969 
z
M 947 1747 
Q 947 1113 1208 752 
Q 1469 391 1925 391 
Q 2381 391 2643 752 
Q 2906 1113 2906 1747 
Q 2906 2381 2643 2742 
Q 2381 3103 1925 3103 
Q 1469 3103 1208 2742 
Q 947 2381 947 1747 
z
" transform="scale(0.015625)"/>
       <path id="DejaVuSans-65" d="M 3597 1894 
L 3597 1613 
L 953 1613 
Q 991 1019 1311 708 
Q 1631 397 2203 397 
Q 2534 397 2845 478 
Q 3156 559 3463 722 
L 3463 178 
Q 3153 47 2828 -22 
Q 2503 -91 2169 -91 
Q 1331 -91 842 396 
Q 353 884 353 1716 
Q 353 2575 817 3079 
Q 1281 3584 2069 3584 
Q 2775 3584 3186 3129 
Q 3597 2675 3597 1894 
z
M 3022 2063 
Q 3016 2534 2758 2815 
Q 2500 3097 2075 3097 
Q 1594 3097 1305 2825 
Q 1016 2553 972 2059 
L 3022 2063 
z
" transform="scale(0.015625)"/>
       <path id="DejaVuSans-67" d="M 2906 1791 
Q 2906 2416 2648 2759 
Q 2391 3103 1925 3103 
Q 1463 3103 1205 2759 
Q 947 2416 947 1791 
Q 947 1169 1205 825 
Q 1463 481 1925 481 
Q 2391 481 2648 825 
Q 2906 1169 2906 1791 
z
M 3481 434 
Q 3481 -459 3084 -895 
Q 2688 -1331 1869 -1331 
Q 1566 -1331 1297 -1286 
Q 1028 -1241 775 -1147 
L 775 -588 
Q 1028 -725 1275 -790 
Q 1522 -856 1778 -856 
Q 2344 -856 2625 -561 
Q 2906 -266 2906 331 
L 2906 616 
Q 2728 306 2450 153 
Q 2172 0 1784 0 
Q 1141 0 747 490 
Q 353 981 353 1791 
Q 353 2603 747 3093 
Q 1141 3584 1784 3584 
Q 2172 3584 2450 3431 
Q 2728 3278 2906 2969 
L 2906 3500 
L 3481 3500 
L 3481 434 
z
" transform="scale(0.015625)"/>
       <path id="DejaVuSans-5d" d="M 1947 4863 
L 1947 -844 
L 622 -844 
L 622 -397 
L 1369 -397 
L 1369 4416 
L 622 4416 
L 622 4863 
L 1947 4863 
z
" transform="scale(0.015625)"/>
      </defs>
      <use xlink:href="#DejaVuSans-Oblique-3b1" transform="translate(0 0.015625)"/>
      <use xlink:href="#DejaVuSans-5b" transform="translate(163.330078 0.015625)"/>
      <use xlink:href="#DejaVuSans-64" transform="translate(202.34375 0.015625)"/>
      <use xlink:href="#DejaVuSans-65" transform="translate(265.820312 0.015625)"/>
      <use xlink:href="#DejaVuSans-67" transform="translate(327.34375 0.015625)"/>
      <use xlink:href="#DejaVuSans-5d" transform="translate(390.820312 0.015625)"/>
     </g>
    </g>
   </g>
   <g id="matplotlib.axis_2">
    <g id="ytick_1">
     <g id="line2d_27">
      <path d="M 57.6 296.226699 
L 414.72 296.226699 
" clip-path="url(#p734b274a38)" style="fill: none; stroke: #b0b0b0; stroke-width: 0.8; stroke-linecap: square"/>
     </g>
     <g id="line2d_28">
      <defs>
       <path id="m8b61da7f03" d="M 0 0 
L -3.5 0 
" style="stroke: #000000; stroke-width: 0.8"/>
      </defs>
      <g>
       <use xlink:href="#m8b61da7f03" x="57.6" y="296.226699" style="stroke: #000000; stroke-width: 0.8"/>
      </g>
     </g>
     <g id="text_15">
      <!-- −0.4 -->
      <g transform="translate(26.317187 300.025918) scale(0.1 -0.1)">
       <defs>
        <path id="DejaVuSans-2e" d="M 684 794 
L 1344 794 
L 1344 0 
L 684 0 
L 684 794 
z
" transform="scale(0.015625)"/>
       </defs>
       <use xlink:href="#DejaVuSans-2212"/>
       <use xlink:href="#DejaVuSans-30" x="83.789062"/>
       <use xlink:href="#DejaVuSans-2e" x="147.412109"/>
       <use xlink:href="#DejaVuSans-34" x="179.199219"/>
      </g>
     </g>
    </g>
    <g id="ytick_2">
     <g id="line2d_29">
      <path d="M 57.6 263.018319 
L 414.72 263.018319 
" clip-path="url(#p734b274a38)" style="fill: none; stroke: #b0b0b0; stroke-width: 0.8; stroke-linecap: square"/>
     </g>
     <g id="line2d_30">
      <g>
       <use xlink:href="#m8b61da7f03" x="57.6" y="263.018319" style="stroke: #000000; stroke-width: 0.8"/>
      </g>
     </g>
     <g id="text_16">
      <!-- −0.2 -->
      <g transform="translate(26.317187 266.817538) scale(0.1 -0.1)">
       <use xlink:href="#DejaVuSans-2212"/>
       <use xlink:href="#DejaVuSans-30" x="83.789062"/>
       <use xlink:href="#DejaVuSans-2e" x="147.412109"/>
       <use xlink:href="#DejaVuSans-32" x="179.199219"/>
      </g>
     </g>
    </g>
    <g id="ytick_3">
     <g id="line2d_31">
      <path d="M 57.6 229.809938 
L 414.72 229.809938 
" clip-path="url(#p734b274a38)" style="fill: none; stroke: #b0b0b0; stroke-width: 0.8; stroke-linecap: square"/>
     </g>
     <g id="line2d_32">
      <g>
       <use xlink:href="#m8b61da7f03" x="57.6" y="229.809938" style="stroke: #000000; stroke-width: 0.8"/>
      </g>
     </g>
     <g id="text_17">
      <!-- 0.0 -->
      <g transform="translate(34.696875 233.609157) scale(0.1 -0.1)">
       <use xlink:href="#DejaVuSans-30"/>
       <use xlink:href="#DejaVuSans-2e" x="63.623047"/>
       <use xlink:href="#DejaVuSans-30" x="95.410156"/>
      </g>
     </g>
    </g>
    <g id="ytick_4">
     <g id="line2d_33">
      <path d="M 57.6 196.601558 
L 414.72 196.601558 
" clip-path="url(#p734b274a38)" style="fill: none; stroke: #b0b0b0; stroke-width: 0.8; stroke-linecap: square"/>
     </g>
     <g id="line2d_34">
      <g>
       <use xlink:href="#m8b61da7f03" x="57.6" y="196.601558" style="stroke: #000000; stroke-width: 0.8"/>
      </g>
     </g>
     <g id="text_18">
      <!-- 0.2 -->
      <g transform="translate(34.696875 200.400777) scale(0.1 -0.1)">
       <use xlink:href="#DejaVuSans-30"/>
       <use xlink:href="#DejaVuSans-2e" x="63.623047"/>
       <use xlink:href="#DejaVuSans-32" x="95.410156"/>
      </g>
     </g>
    </g>
    <g id="ytick_5">
     <g id="line2d_35">
      <path d="M 57.6 163.393178 
L 414.72 163.393178 
" clip-path="url(#p734b274a38)" style="fill: none; stroke: #b0b0b0; stroke-width: 0.8; stroke-linecap: square"/>
     </g>
     <g id="line2d_36">
      <g>
       <use xlink:href="#m8b61da7f03" x="57.6" y="163.393178" style="stroke: #000000; stroke-width: 0.8"/>
      </g>
     </g>
     <g id="text_19">
      <!-- 0.4 -->
      <g transform="translate(34.696875 167.192397) scale(0.1 -0.1)">
       <use xlink:href="#DejaVuSans-30"/>
       <use xlink:href="#DejaVuSans-2e" x="63.623047"/>
       <use xlink:href="#DejaVuSans-34" x="95.410156"/>
      </g>
     </g>
    </g>
    <g id="ytick_6">
     <g id="line2d_37">
      <path d="M 57.6 130.184797 
L 414.72 130.184797 
" clip-path="url(#p734b274a38)" style="fill: none; stroke: #b0b0b0; stroke-width: 0.8; stroke-linecap: square"/>
     </g>
     <g id="line2d_38">
      <g>
       <use xlink:href="#m8b61da7f03" x="57.6" y="130.184797" style="stroke: #000000; stroke-width: 0.8"/>
      </g>
     </g>
     <g id="text_20">
      <!-- 0.6 -->
      <g transform="translate(34.696875 133.984016) scale(0.1 -0.1)">
       <use xlink:href="#DejaVuSans-30"/>
       <use xlink:href="#DejaVuSans-2e" x="63.623047"/>
       <use xlink:href="#DejaVuSans-36" x="95.410156"/>
      </g>
     </g>
    </g>
    <g id="ytick_7">
     <g id="line2d_39">
      <path d="M 57.6 96.976417 
L 414.72 96.976417 
" clip-path="url(#p734b274a38)" style="fill: none; stroke: #b0b0b0; stroke-width: 0.8; stroke-linecap: square"/>
     </g>
     <g id="line2d_40">
      <g>
       <use xlink:href="#m8b61da7f03" x="57.6" y="96.976417" style="stroke: #000000; stroke-width: 0.8"/>
      </g>
     </g>
     <g id="text_21">
      <!-- 0.8 -->
      <g transform="translate(34.696875 100.775636) scale(0.1 -0.1)">
       <use xlink:href="#DejaVuSans-30"/>
       <use xlink:href="#DejaVuSans-2e" x="63.623047"/>
       <use xlink:href="#DejaVuSans-38" x="95.410156"/>
      </g>
     </g>
    </g>
    <g id="ytick_8">
     <g id="line2d_41">
      <path d="M 57.6 63.768037 
L 414.72 63.768037 
" clip-path="url(#p734b274a38)" style="fill: none; stroke: #b0b0b0; stroke-width: 0.8; stroke-linecap: square"/>
     </g>
     <g id="line2d_42">
      <g>
       <use xlink:href="#m8b61da7f03" x="57.6" y="63.768037" style="stroke: #000000; stroke-width: 0.8"/>
      </g>
     </g>
     <g id="text_22">
      <!-- 1.0 -->
      <g transform="translate(34.696875 67.567256) scale(0.1 -0.1)">
       <use xlink:href="#DejaVuSans-31"/>
       <use xlink:href="#DejaVuSans-2e" x="63.623047"/>
       <use xlink:href="#DejaVuSans-30" x="95.410156"/>
      </g>
     </g>
    </g>
    <g id="text_23">
     <!-- $C_L \quad [-]$ -->
     <g transform="translate(20.2375 193.078) rotate(-90) scale(0.1 -0.1)">
      <defs>
       <path id="DejaVuSans-Oblique-43" d="M 4447 4306 
L 4319 3641 
Q 4019 3944 3683 4091 
Q 3347 4238 2956 4238 
Q 2422 4238 2017 3981 
Q 1613 3725 1319 3200 
Q 1131 2863 1032 2486 
Q 934 2109 934 1728 
Q 934 1091 1264 756 
Q 1594 422 2222 422 
Q 2656 422 3056 561 
Q 3456 700 3834 978 
L 3688 231 
Q 3316 72 2936 -9 
Q 2556 -91 2175 -91 
Q 1278 -91 773 396 
Q 269 884 269 1753 
Q 269 2309 461 2846 
Q 653 3384 1013 3828 
Q 1394 4300 1883 4525 
Q 2372 4750 3022 4750 
Q 3422 4750 3780 4639 
Q 4138 4528 4447 4306 
z
" transform="scale(0.015625)"/>
       <path id="DejaVuSans-Oblique-4c" d="M 1075 4666 
L 1709 4666 
L 909 525 
L 3181 525 
L 3078 0 
L 172 0 
L 1075 4666 
z
" transform="scale(0.015625)"/>
      </defs>
      <use xlink:href="#DejaVuSans-Oblique-43" transform="translate(0 0.015625)"/>
      <use xlink:href="#DejaVuSans-Oblique-4c" transform="translate(69.824219 -16.390625) scale(0.7)"/>
      <use xlink:href="#DejaVuSans-5b" transform="translate(208.969727 0.015625)"/>
      <use xlink:href="#DejaVuSans-2212" transform="translate(247.983398 0.015625)"/>
      <use xlink:href="#DejaVuSans-5d" transform="translate(331.772461 0.015625)"/>
     </g>
    </g>
   </g>
   <g id="line2d_43">
    <path d="M 57.6 229.809938 
L 414.72 229.809938 
" clip-path="url(#p734b274a38)" style="fill: none; stroke-dasharray: 5.55,2.4; stroke-dashoffset: 0; stroke: #000000; stroke-width: 1.5"/>
   </g>
   <g id="line2d_44">
    <path d="M 156.72325 307.584 
L 156.72325 41.472 
" clip-path="url(#p734b274a38)" style="fill: none; stroke-dasharray: 5.55,2.4; stroke-dashoffset: 0; stroke: #000000; stroke-width: 1.5"/>
   </g>
   <g id="patch_3">
    <path d="M 57.6 307.584 
L 57.6 41.472 
" style="fill: none; stroke: #000000; stroke-width: 0.8; stroke-linejoin: miter; stroke-linecap: square"/>
   </g>
   <g id="patch_4">
    <path d="M 414.72 307.584 
L 414.72 41.472 
" style="fill: none; stroke: #000000; stroke-width: 0.8; stroke-linejoin: miter; stroke-linecap: square"/>
   </g>
   <g id="patch_5">
    <path d="M 57.6 307.584 
L 414.72 307.584 
" style="fill: none; stroke: #000000; stroke-width: 0.8; stroke-linejoin: miter; stroke-linecap: square"/>
   </g>
   <g id="patch_6">
    <path d="M 57.6 41.472 
L 414.72 41.472 
" style="fill: none; stroke: #000000; stroke-width: 0.8; stroke-linejoin: miter; stroke-linecap: square"/>
   </g>
   <g id="legend_1">
    <g id="patch_7">
     <path d="M 64.6 78.850125 
L 154.5 78.850125 
Q 156.5 78.850125 156.5 76.850125 
L 156.5 48.472 
Q 156.5 46.472 154.5 46.472 
L 64.6 46.472 
Q 62.6 46.472 62.6 48.472 
L 62.6 76.850125 
Q 62.6 78.850125 64.6 78.850125 
z
" style="fill: #ffffff; opacity: 0.8; stroke: #cccccc; stroke-linejoin: miter"/>
    </g>
    <g id="line2d_45">
     <path d="M 66.6 54.572 
L 76.6 54.572 
L 86.6 54.572 
" style="fill: none; stroke: #000000; stroke-width: 1.5; stroke-linecap: square"/>
     <defs>
      <path id="mc89acb896f" d="M 0 3 
C 0.795609 3 1.55874 2.683901 2.12132 2.12132 
C 2.683901 1.55874 3 0.795609 3 0 
C 3 -0.795609 2.683901 -1.55874 2.12132 -2.12132 
C 1.55874 -2.683901 0.795609 -3 0 -3 
C -0.795609 -3 -1.55874 -2.683901 -2.12132 -2.12132 
C -2.683901 -1.55874 -3 -0.795609 -3 0 
C -3 0.795609 -2.683901 1.55874 -2.12132 2.12132 
C -1.55874 2.683901 -0.795609 3 0 3 
z
" style="stroke: #000000"/>
     </defs>
     <g>
      <use xlink:href="#mc89acb896f" x="76.6" y="54.572" style="fill: #17becf; stroke: #000000"/>
     </g>
    </g>
    <g id="text_24">
     <!-- $C_L$ 3D wing -->
     <g transform="translate(94.6 58.072) scale(0.1 -0.1)">
      <defs>
       <path id="DejaVuSans-20" transform="scale(0.015625)"/>
       <path id="DejaVuSans-33" d="M 2597 2516 
Q 3050 2419 3304 2112 
Q 3559 1806 3559 1356 
Q 3559 666 3084 287 
Q 2609 -91 1734 -91 
Q 1441 -91 1130 -33 
Q 819 25 488 141 
L 488 750 
Q 750 597 1062 519 
Q 1375 441 1716 441 
Q 2309 441 2620 675 
Q 2931 909 2931 1356 
Q 2931 1769 2642 2001 
Q 2353 2234 1838 2234 
L 1294 2234 
L 1294 2753 
L 1863 2753 
Q 2328 2753 2575 2939 
Q 2822 3125 2822 3475 
Q 2822 3834 2567 4026 
Q 2313 4219 1838 4219 
Q 1578 4219 1281 4162 
Q 984 4106 628 3988 
L 628 4550 
Q 988 4650 1302 4700 
Q 1616 4750 1894 4750 
Q 2613 4750 3031 4423 
Q 3450 4097 3450 3541 
Q 3450 3153 3228 2886 
Q 3006 2619 2597 2516 
z
" transform="scale(0.015625)"/>
       <path id="DejaVuSans-44" d="M 1259 4147 
L 1259 519 
L 2022 519 
Q 2988 519 3436 956 
Q 3884 1394 3884 2338 
Q 3884 3275 3436 3711 
Q 2988 4147 2022 4147 
L 1259 4147 
z
M 628 4666 
L 1925 4666 
Q 3281 4666 3915 4102 
Q 4550 3538 4550 2338 
Q 4550 1131 3912 565 
Q 3275 0 1925 0 
L 628 0 
L 628 4666 
z
" transform="scale(0.015625)"/>
       <path id="DejaVuSans-77" d="M 269 3500 
L 844 3500 
L 1563 769 
L 2278 3500 
L 2956 3500 
L 3675 769 
L 4391 3500 
L 4966 3500 
L 4050 0 
L 3372 0 
L 2619 2869 
L 1863 0 
L 1184 0 
L 269 3500 
z
" transform="scale(0.015625)"/>
       <path id="DejaVuSans-69" d="M 603 3500 
L 1178 3500 
L 1178 0 
L 603 0 
L 603 3500 
z
M 603 4863 
L 1178 4863 
L 1178 4134 
L 603 4134 
L 603 4863 
z
" transform="scale(0.015625)"/>
       <path id="DejaVuSans-6e" d="M 3513 2113 
L 3513 0 
L 2938 0 
L 2938 2094 
Q 2938 2591 2744 2837 
Q 2550 3084 2163 3084 
Q 1697 3084 1428 2787 
Q 1159 2491 1159 1978 
L 1159 0 
L 581 0 
L 581 3500 
L 1159 3500 
L 1159 2956 
Q 1366 3272 1645 3428 
Q 1925 3584 2291 3584 
Q 2894 3584 3203 3211 
Q 3513 2838 3513 2113 
z
" transform="scale(0.015625)"/>
      </defs>
      <use xlink:href="#DejaVuSans-Oblique-43" transform="translate(0 0.015625)"/>
      <use xlink:href="#DejaVuSans-Oblique-4c" transform="translate(69.824219 -16.390625) scale(0.7)"/>
      <use xlink:href="#DejaVuSans-20" transform="translate(111.557617 0.015625)"/>
      <use xlink:href="#DejaVuSans-33" transform="translate(143.344727 0.015625)"/>
      <use xlink:href="#DejaVuSans-44" transform="translate(202.467773 0.015625)"/>
      <use xlink:href="#DejaVuSans-20" transform="translate(279.469727 0.015625)"/>
      <use xlink:href="#DejaVuSans-77" transform="translate(311.256836 0.015625)"/>
      <use xlink:href="#DejaVuSans-69" transform="translate(393.043945 0.015625)"/>
      <use xlink:href="#DejaVuSans-6e" transform="translate(420.827148 0.015625)"/>
      <use xlink:href="#DejaVuSans-67" transform="translate(484.206055 0.015625)"/>
     </g>
    </g>
    <g id="line2d_46">
     <path d="M 66.6 69.270438 
L 76.6 69.270438 
L 86.6 69.270438 
" style="fill: none; stroke: #000000; stroke-width: 1.5; stroke-linecap: square"/>
     <defs>
      <path id="me56d726784" d="M 0 -3 
L -3 3 
L 3 3 
z
" style="stroke: #000000; stroke-linejoin: miter"/>
     </defs>
     <g>
      <use xlink:href="#me56d726784" x="76.6" y="69.270438" style="fill: #d62728; stroke: #000000; stroke-linejoin: miter"/>
     </g>
    </g>
    <g id="text_25">
     <!-- $C_l$ 2D airfoil -->
     <g transform="translate(94.6 72.770438) scale(0.1 -0.1)">
      <defs>
       <path id="DejaVuSans-Oblique-6c" d="M 1172 4863 
L 1747 4863 
L 800 0 
L 225 0 
L 1172 4863 
z
" transform="scale(0.015625)"/>
       <path id="DejaVuSans-61" d="M 2194 1759 
Q 1497 1759 1228 1600 
Q 959 1441 959 1056 
Q 959 750 1161 570 
Q 1363 391 1709 391 
Q 2188 391 2477 730 
Q 2766 1069 2766 1631 
L 2766 1759 
L 2194 1759 
z
M 3341 1997 
L 3341 0 
L 2766 0 
L 2766 531 
Q 2569 213 2275 61 
Q 1981 -91 1556 -91 
Q 1019 -91 701 211 
Q 384 513 384 1019 
Q 384 1609 779 1909 
Q 1175 2209 1959 2209 
L 2766 2209 
L 2766 2266 
Q 2766 2663 2505 2880 
Q 2244 3097 1772 3097 
Q 1472 3097 1187 3025 
Q 903 2953 641 2809 
L 641 3341 
Q 956 3463 1253 3523 
Q 1550 3584 1831 3584 
Q 2591 3584 2966 3190 
Q 3341 2797 3341 1997 
z
" transform="scale(0.015625)"/>
       <path id="DejaVuSans-72" d="M 2631 2963 
Q 2534 3019 2420 3045 
Q 2306 3072 2169 3072 
Q 1681 3072 1420 2755 
Q 1159 2438 1159 1844 
L 1159 0 
L 581 0 
L 581 3500 
L 1159 3500 
L 1159 2956 
Q 1341 3275 1631 3429 
Q 1922 3584 2338 3584 
Q 2397 3584 2469 3576 
Q 2541 3569 2628 3553 
L 2631 2963 
z
" transform="scale(0.015625)"/>
       <path id="DejaVuSans-66" d="M 2375 4863 
L 2375 4384 
L 1825 4384 
Q 1516 4384 1395 4259 
Q 1275 4134 1275 3809 
L 1275 3500 
L 2222 3500 
L 2222 3053 
L 1275 3053 
L 1275 0 
L 697 0 
L 697 3053 
L 147 3053 
L 147 3500 
L 697 3500 
L 697 3744 
Q 697 4328 969 4595 
Q 1241 4863 1831 4863 
L 2375 4863 
z
" transform="scale(0.015625)"/>
       <path id="DejaVuSans-6f" d="M 1959 3097 
Q 1497 3097 1228 2736 
Q 959 2375 959 1747 
Q 959 1119 1226 758 
Q 1494 397 1959 397 
Q 2419 397 2687 759 
Q 2956 1122 2956 1747 
Q 2956 2369 2687 2733 
Q 2419 3097 1959 3097 
z
M 1959 3584 
Q 2709 3584 3137 3096 
Q 3566 2609 3566 1747 
Q 3566 888 3137 398 
Q 2709 -91 1959 -91 
Q 1206 -91 779 398 
Q 353 888 353 1747 
Q 353 2609 779 3096 
Q 1206 3584 1959 3584 
z
" transform="scale(0.015625)"/>
       <path id="DejaVuSans-6c" d="M 603 4863 
L 1178 4863 
L 1178 0 
L 603 0 
L 603 4863 
z
" transform="scale(0.015625)"/>
      </defs>
      <use xlink:href="#DejaVuSans-Oblique-43" transform="translate(0 0.015625)"/>
      <use xlink:href="#DejaVuSans-Oblique-6c" transform="translate(69.824219 -16.390625) scale(0.7)"/>
      <use xlink:href="#DejaVuSans-20" transform="translate(92.006836 0.015625)"/>
      <use xlink:href="#DejaVuSans-32" transform="translate(123.793945 0.015625)"/>
      <use xlink:href="#DejaVuSans-44" transform="translate(187.416992 0.015625)"/>
      <use xlink:href="#DejaVuSans-20" transform="translate(264.418945 0.015625)"/>
      <use xlink:href="#DejaVuSans-61" transform="translate(296.206055 0.015625)"/>
      <use xlink:href="#DejaVuSans-69" transform="translate(357.485352 0.015625)"/>
      <use xlink:href="#DejaVuSans-72" transform="translate(385.268555 0.015625)"/>
      <use xlink:href="#DejaVuSans-66" transform="translate(426.381836 0.015625)"/>
      <use xlink:href="#DejaVuSans-6f" transform="translate(461.586914 0.015625)"/>
      <use xlink:href="#DejaVuSans-69" transform="translate(522.768555 0.015625)"/>
      <use xlink:href="#DejaVuSans-6c" transform="translate(550.551758 0.015625)"/>
     </g>
    </g>
   </g>
   <g id="line2d_47">
    <path d="M 73.832727 295.488 
L 87.647814 276.094605 
L 101.462901 260.686911 
L 115.277988 248.979647 
L 129.093075 237.359958 
L 142.908162 223.203624 
L 156.72325 207.265582 
L 156.72325 207.265582 
L 170.538337 185.399352 
L 184.353424 171.059358 
L 198.168511 156.711519 
L 211.983598 141.645877 
L 225.798685 125.762098 
L 239.613772 113.402662 
L 253.428859 97.440278 
L 267.243946 83.670651 
L 281.059033 71.23794 
L 281.059033 62.821823 
L 284.512805 64.056206 
L 287.966576 63.859362 
L 291.420348 61.170832 
L 294.87412 59.26491 
L 294.87412 57.119091 
L 298.327892 54.229104 
L 298.327892 55.900609 
L 301.781663 57.62713 
L 301.781663 59.983936 
L 305.235435 63.549089 
L 305.235435 66.293708 
L 308.689207 66.018392 
L 308.689207 78.382163 
L 312.142979 74.897314 
L 312.142979 74.980651 
L 315.59675 71.018016 
L 315.59675 65.900246 
L 319.050522 66.001079 
L 319.050522 63.246915 
L 322.504294 59.54998 
L 322.504294 57.180868 
L 325.958066 55.251153 
L 325.958066 53.568 
L 329.411838 56.27852 
L 329.411838 58.443047 
L 332.865609 60.31036 
L 332.865609 62.887696 
L 336.319381 62.865991 
L 336.319381 61.548099 
L 339.773153 70.012875 
L 343.226925 64.514398 
L 346.680696 64.62641 
L 350.134468 67.676318 
" clip-path="url(#p734b274a38)" style="fill: none; stroke: #000000; stroke-width: 1.5; stroke-linecap: square"/>
    <g clip-path="url(#p734b274a38)">
     <use xlink:href="#me56d726784" x="73.832727" y="295.488" style="fill: #d62728; stroke: #000000; stroke-linejoin: miter"/>
     <use xlink:href="#me56d726784" x="87.647814" y="276.094605" style="fill: #d62728; stroke: #000000; stroke-linejoin: miter"/>
     <use xlink:href="#me56d726784" x="101.462901" y="260.686911" style="fill: #d62728; stroke: #000000; stroke-linejoin: miter"/>
     <use xlink:href="#me56d726784" x="115.277988" y="248.979647" style="fill: #d62728; stroke: #000000; stroke-linejoin: miter"/>
     <use xlink:href="#me56d726784" x="129.093075" y="237.359958" style="fill: #d62728; stroke: #000000; stroke-linejoin: miter"/>
     <use xlink:href="#me56d726784" x="142.908162" y="223.203624" style="fill: #d62728; stroke: #000000; stroke-linejoin: miter"/>
     <use xlink:href="#me56d726784" x="156.72325" y="207.265582" style="fill: #d62728; stroke: #000000; stroke-linejoin: miter"/>
     <use xlink:href="#me56d726784" x="156.72325" y="207.265582" style="fill: #d62728; stroke: #000000; stroke-linejoin: miter"/>
     <use xlink:href="#me56d726784" x="170.538337" y="185.399352" style="fill: #d62728; stroke: #000000; stroke-linejoin: miter"/>
     <use xlink:href="#me56d726784" x="184.353424" y="171.059358" style="fill: #d62728; stroke: #000000; stroke-linejoin: miter"/>
     <use xlink:href="#me56d726784" x="198.168511" y="156.711519" style="fill: #d62728; stroke: #000000; stroke-linejoin: miter"/>
     <use xlink:href="#me56d726784" x="211.983598" y="141.645877" style="fill: #d62728; stroke: #000000; stroke-linejoin: miter"/>
     <use xlink:href="#me56d726784" x="225.798685" y="125.762098" style="fill: #d62728; stroke: #000000; stroke-linejoin: miter"/>
     <use xlink:href="#me56d726784" x="239.613772" y="113.402662" style="fill: #d62728; stroke: #000000; stroke-linejoin: miter"/>
     <use xlink:href="#me56d726784" x="253.428859" y="97.440278" style="fill: #d62728; stroke: #000000; stroke-linejoin: miter"/>
     <use xlink:href="#me56d726784" x="267.243946" y="83.670651" style="fill: #d62728; stroke: #000000; stroke-linejoin: miter"/>
     <use xlink:href="#me56d726784" x="281.059033" y="71.23794" style="fill: #d62728; stroke: #000000; stroke-linejoin: miter"/>
     <use xlink:href="#me56d726784" x="281.059033" y="62.821823" style="fill: #d62728; stroke: #000000; stroke-linejoin: miter"/>
     <use xlink:href="#me56d726784" x="284.512805" y="64.056206" style="fill: #d62728; stroke: #000000; stroke-linejoin: miter"/>
     <use xlink:href="#me56d726784" x="287.966576" y="63.859362" style="fill: #d62728; stroke: #000000; stroke-linejoin: miter"/>
     <use xlink:href="#me56d726784" x="291.420348" y="61.170832" style="fill: #d62728; stroke: #000000; stroke-linejoin: miter"/>
     <use xlink:href="#me56d726784" x="294.87412" y="59.26491" style="fill: #d62728; stroke: #000000; stroke-linejoin: miter"/>
     <use xlink:href="#me56d726784" x="294.87412" y="57.119091" style="fill: #d62728; stroke: #000000; stroke-linejoin: miter"/>
     <use xlink:href="#me56d726784" x="298.327892" y="54.229104" style="fill: #d62728; stroke: #000000; stroke-linejoin: miter"/>
     <use xlink:href="#me56d726784" x="298.327892" y="55.900609" style="fill: #d62728; stroke: #000000; stroke-linejoin: miter"/>
     <use xlink:href="#me56d726784" x="301.781663" y="57.62713" style="fill: #d62728; stroke: #000000; stroke-linejoin: miter"/>
     <use xlink:href="#me56d726784" x="301.781663" y="59.983936" style="fill: #d62728; stroke: #000000; stroke-linejoin: miter"/>
     <use xlink:href="#me56d726784" x="305.235435" y="63.549089" style="fill: #d62728; stroke: #000000; stroke-linejoin: miter"/>
     <use xlink:href="#me56d726784" x="305.235435" y="66.293708" style="fill: #d62728; stroke: #000000; stroke-linejoin: miter"/>
     <use xlink:href="#me56d726784" x="308.689207" y="66.018392" style="fill: #d62728; stroke: #000000; stroke-linejoin: miter"/>
     <use xlink:href="#me56d726784" x="308.689207" y="78.382163" style="fill: #d62728; stroke: #000000; stroke-linejoin: miter"/>
     <use xlink:href="#me56d726784" x="312.142979" y="74.897314" style="fill: #d62728; stroke: #000000; stroke-linejoin: miter"/>
     <use xlink:href="#me56d726784" x="312.142979" y="74.980651" style="fill: #d62728; stroke: #000000; stroke-linejoin: miter"/>
     <use xlink:href="#me56d726784" x="315.59675" y="71.018016" style="fill: #d62728; stroke: #000000; stroke-linejoin: miter"/>
     <use xlink:href="#me56d726784" x="315.59675" y="65.900246" style="fill: #d62728; stroke: #000000; stroke-linejoin: miter"/>
     <use xlink:href="#me56d726784" x="319.050522" y="66.001079" style="fill: #d62728; stroke: #000000; stroke-linejoin: miter"/>
     <use xlink:href="#me56d726784" x="319.050522" y="63.246915" style="fill: #d62728; stroke: #000000; stroke-linejoin: miter"/>
     <use xlink:href="#me56d726784" x="322.504294" y="59.54998" style="fill: #d62728; stroke: #000000; stroke-linejoin: miter"/>
     <use xlink:href="#me56d726784" x="322.504294" y="57.180868" style="fill: #d62728; stroke: #000000; stroke-linejoin: miter"/>
     <use xlink:href="#me56d726784" x="325.958066" y="55.251153" style="fill: #d62728; stroke: #000000; stroke-linejoin: miter"/>
     <use xlink:href="#me56d726784" x="325.958066" y="53.568" style="fill: #d62728; stroke: #000000; stroke-linejoin: miter"/>
     <use xlink:href="#me56d726784" x="329.411838" y="56.27852" style="fill: #d62728; stroke: #000000; stroke-linejoin: miter"/>
     <use xlink:href="#me56d726784" x="329.411838" y="58.443047" style="fill: #d62728; stroke: #000000; stroke-linejoin: miter"/>
     <use xlink:href="#me56d726784" x="332.865609" y="60.31036" style="fill: #d62728; stroke: #000000; stroke-linejoin: miter"/>
     <use xlink:href="#me56d726784" x="332.865609" y="62.887696" style="fill: #d62728; stroke: #000000; stroke-linejoin: miter"/>
     <use xlink:href="#me56d726784" x="336.319381" y="62.865991" style="fill: #d62728; stroke: #000000; stroke-linejoin: miter"/>
     <use xlink:href="#me56d726784" x="336.319381" y="61.548099" style="fill: #d62728; stroke: #000000; stroke-linejoin: miter"/>
     <use xlink:href="#me56d726784" x="339.773153" y="70.012875" style="fill: #d62728; stroke: #000000; stroke-linejoin: miter"/>
     <use xlink:href="#me56d726784" x="343.226925" y="64.514398" style="fill: #d62728; stroke: #000000; stroke-linejoin: miter"/>
     <use xlink:href="#me56d726784" x="346.680696" y="64.62641" style="fill: #d62728; stroke: #000000; stroke-linejoin: miter"/>
     <use xlink:href="#me56d726784" x="350.134468" y="67.676318" style="fill: #d62728; stroke: #000000; stroke-linejoin: miter"/>
    </g>
   </g>
   <g id="line2d_48">
    <path d="M 73.832727 280.057451 
L 101.462901 253.65631 
L 115.277988 243.874022 
L 129.093075 233.951024 
L 142.908162 223.198334 
L 156.72325 212.002336 
L 170.538337 195.532492 
L 184.353424 182.670937 
L 198.168511 170.823097 
L 211.983598 158.879837 
L 225.798685 146.283533 
L 239.613772 133.52216 
L 253.428859 121.438637 
L 267.243946 110.501146 
L 281.059033 99.345638 
L 281.059033 98.914031 
L 287.966576 94.30247 
L 294.87412 87.981927 
L 294.87412 88.812785 
L 301.781663 84.052567 
L 308.689207 80.473836 
L 308.689207 82.664853 
L 315.59675 78.428423 
L 322.504294 76.024316 
L 322.504294 74.955118 
L 329.411838 71.134226 
L 329.411838 71.790606 
L 336.319381 70.534263 
L 336.319381 69.659416 
L 343.226925 69.271694 
L 343.226925 68.065823 
L 350.134468 67.508799 
L 350.134468 69.00567 
L 357.042012 69.162571 
L 357.042012 69.197295 
L 363.949555 69.360074 
L 363.949555 69.816714 
L 370.857099 75.356185 
L 370.857099 72.587794 
L 377.764642 82.416284 
L 377.764642 80.856406 
L 384.672186 86.913476 
L 384.672186 88.056955 
L 391.579729 95.708822 
L 391.579729 94.190996 
L 398.487273 99.281366 
" clip-path="url(#p734b274a38)" style="fill: none; stroke: #000000; stroke-width: 1.5; stroke-linecap: square"/>
    <g clip-path="url(#p734b274a38)">
     <use xlink:href="#mc89acb896f" x="73.832727" y="280.057451" style="fill: #17becf; stroke: #000000"/>
     <use xlink:href="#mc89acb896f" x="101.462901" y="253.65631" style="fill: #17becf; stroke: #000000"/>
     <use xlink:href="#mc89acb896f" x="115.277988" y="243.874022" style="fill: #17becf; stroke: #000000"/>
     <use xlink:href="#mc89acb896f" x="129.093075" y="233.951024" style="fill: #17becf; stroke: #000000"/>
     <use xlink:href="#mc89acb896f" x="142.908162" y="223.198334" style="fill: #17becf; stroke: #000000"/>
     <use xlink:href="#mc89acb896f" x="156.72325" y="212.002336" style="fill: #17becf; stroke: #000000"/>
     <use xlink:href="#mc89acb896f" x="170.538337" y="195.532492" style="fill: #17becf; stroke: #000000"/>
     <use xlink:href="#mc89acb896f" x="184.353424" y="182.670937" style="fill: #17becf; stroke: #000000"/>
     <use xlink:href="#mc89acb896f" x="198.168511" y="170.823097" style="fill: #17becf; stroke: #000000"/>
     <use xlink:href="#mc89acb896f" x="211.983598" y="158.879837" style="fill: #17becf; stroke: #000000"/>
     <use xlink:href="#mc89acb896f" x="225.798685" y="146.283533" style="fill: #17becf; stroke: #000000"/>
     <use xlink:href="#mc89acb896f" x="239.613772" y="133.52216" style="fill: #17becf; stroke: #000000"/>
     <use xlink:href="#mc89acb896f" x="253.428859" y="121.438637" style="fill: #17becf; stroke: #000000"/>
     <use xlink:href="#mc89acb896f" x="267.243946" y="110.501146" style="fill: #17becf; stroke: #000000"/>
     <use xlink:href="#mc89acb896f" x="281.059033" y="99.345638" style="fill: #17becf; stroke: #000000"/>
     <use xlink:href="#mc89acb896f" x="281.059033" y="98.914031" style="fill: #17becf; stroke: #000000"/>
     <use xlink:href="#mc89acb896f" x="287.966576" y="94.30247" style="fill: #17becf; stroke: #000000"/>
     <use xlink:href="#mc89acb896f" x="294.87412" y="87.981927" style="fill: #17becf; stroke: #000000"/>
     <use xlink:href="#mc89acb896f" x="294.87412" y="88.812785" style="fill: #17becf; stroke: #000000"/>
     <use xlink:href="#mc89acb896f" x="301.781663" y="84.052567" style="fill: #17becf; stroke: #000000"/>
     <use xlink:href="#mc89acb896f" x="308.689207" y="80.473836" style="fill: #17becf; stroke: #000000"/>
     <use xlink:href="#mc89acb896f" x="308.689207" y="82.664853" style="fill: #17becf; stroke: #000000"/>
     <use xlink:href="#mc89acb896f" x="315.59675" y="78.428423" style="fill: #17becf; stroke: #000000"/>
     <use xlink:href="#mc89acb896f" x="322.504294" y="76.024316" style="fill: #17becf; stroke: #000000"/>
     <use xlink:href="#mc89acb896f" x="322.504294" y="74.955118" style="fill: #17becf; stroke: #000000"/>
     <use xlink:href="#mc89acb896f" x="329.411838" y="71.134226" style="fill: #17becf; stroke: #000000"/>
     <use xlink:href="#mc89acb896f" x="329.411838" y="71.790606" style="fill: #17becf; stroke: #000000"/>
     <use xlink:href="#mc89acb896f" x="336.319381" y="70.534263" style="fill: #17becf; stroke: #000000"/>
     <use xlink:href="#mc89acb896f" x="336.319381" y="69.659416" style="fill: #17becf; stroke: #000000"/>
     <use xlink:href="#mc89acb896f" x="343.226925" y="69.271694" style="fill: #17becf; stroke: #000000"/>
     <use xlink:href="#mc89acb896f" x="343.226925" y="68.065823" style="fill: #17becf; stroke: #000000"/>
     <use xlink:href="#mc89acb896f" x="350.134468" y="67.508799" style="fill: #17becf; stroke: #000000"/>
     <use xlink:href="#mc89acb896f" x="350.134468" y="69.00567" style="fill: #17becf; stroke: #000000"/>
     <use xlink:href="#mc89acb896f" x="357.042012" y="69.162571" style="fill: #17becf; stroke: #000000"/>
     <use xlink:href="#mc89acb896f" x="357.042012" y="69.197295" style="fill: #17becf; stroke: #000000"/>
     <use xlink:href="#mc89acb896f" x="363.949555" y="69.360074" style="fill: #17becf; stroke: #000000"/>
     <use xlink:href="#mc89acb896f" x="363.949555" y="69.816714" style="fill: #17becf; stroke: #000000"/>
     <use xlink:href="#mc89acb896f" x="370.857099" y="75.356185" style="fill: #17becf; stroke: #000000"/>
     <use xlink:href="#mc89acb896f" x="370.857099" y="72.587794" style="fill: #17becf; stroke: #000000"/>
     <use xlink:href="#mc89acb896f" x="377.764642" y="82.416284" style="fill: #17becf; stroke: #000000"/>
     <use xlink:href="#mc89acb896f" x="377.764642" y="80.856406" style="fill: #17becf; stroke: #000000"/>
     <use xlink:href="#mc89acb896f" x="384.672186" y="86.913476" style="fill: #17becf; stroke: #000000"/>
     <use xlink:href="#mc89acb896f" x="384.672186" y="88.056955" style="fill: #17becf; stroke: #000000"/>
     <use xlink:href="#mc89acb896f" x="391.579729" y="95.708822" style="fill: #17becf; stroke: #000000"/>
     <use xlink:href="#mc89acb896f" x="391.579729" y="94.190996" style="fill: #17becf; stroke: #000000"/>
     <use xlink:href="#mc89acb896f" x="398.487273" y="99.281366" style="fill: #17becf; stroke: #000000"/>
    </g>
   </g>
  </g>
 </g>
 <defs>
  <clipPath id="p734b274a38">
   <rect x="57.6" y="41.472" width="357.12" height="266.112"/>
  </clipPath>
 </defs>
</svg>
