<?xml version="1.0" encoding="utf-8" standalone="no"?>
<!DOCTYPE svg PUBLIC "-//W3C//DTD SVG 1.1//EN"
  "http://www.w3.org/Graphics/SVG/1.1/DTD/svg11.dtd">
<svg xmlns:xlink="http://www.w3.org/1999/xlink" width="460.8pt" height="345.6pt" viewBox="0 0 460.8 345.6" xmlns="http://www.w3.org/2000/svg" version="1.1">
 <metadata>
  <rdf:RDF xmlns:dc="http://purl.org/dc/elements/1.1/" xmlns:cc="http://creativecommons.org/ns#" xmlns:rdf="http://www.w3.org/1999/02/22-rdf-syntax-ns#">
   <cc:Work>
    <dc:type rdf:resource="http://purl.org/dc/dcmitype/StillImage"/>
    <dc:date>2025-01-12T16:50:01.721092</dc:date>
    <dc:format>image/svg+xml</dc:format>
    <dc:creator>
     <cc:Agent>
      <dc:title>Matplotlib v3.10.0, https://matplotlib.org/</dc:title>
     </cc:Agent>
    </dc:creator>
   </cc:Work>
  </rdf:RDF>
 </metadata>
 <defs>
  <style type="text/css">*{stroke-linejoin: round; stroke-linecap: butt}</style>
 </defs>
 <g id="figure_1">
  <g id="patch_1">
   <path d="M 0 345.6 
L 460.8 345.6 
L 460.8 0 
L 0 0 
z
" style="fill: #ffffff"/>
  </g>
  <g id="axes_1">
   <g id="patch_2">
    <path d="M 57.6 307.584 
L 414.72 307.584 
L 414.72 41.472 
L 57.6 41.472 
z
" style="fill: #ffffff"/>
   </g>
   <g id="matplotlib.axis_1">
    <g id="xtick_1">
     <g id="line2d_1">
      <path d="M 73.832727 307.584 
L 73.832727 41.472 
" clip-path="url(#pf215f755b8)" style="fill: none; stroke: #b0b0b0; stroke-width: 0.8; stroke-linecap: square"/>
     </g>
     <g id="line2d_2">
      <defs>
       <path id="mfc4bad4239" d="M 0 0 
L 0 3.5 
" style="stroke: #000000; stroke-width: 0.8"/>
      </defs>
      <g>
       <use xlink:href="#mfc4bad4239" x="73.832727" y="307.584" style="stroke: #000000; stroke-width: 0.8"/>
      </g>
     </g>
     <g id="text_1">
      <!-- −6 -->
      <g transform="translate(66.461634 322.182437) scale(0.1 -0.1)">
       <defs>
        <path id="DejaVuSans-2212" d="M 678 2272 
L 4684 2272 
L 4684 1741 
L 678 1741 
L 678 2272 
z
" transform="scale(0.015625)"/>
        <path id="DejaVuSans-36" d="M 2113 2584 
Q 1688 2584 1439 2293 
Q 1191 2003 1191 1497 
Q 1191 994 1439 701 
Q 1688 409 2113 409 
Q 2538 409 2786 701 
Q 3034 994 3034 1497 
Q 3034 2003 2786 2293 
Q 2538 2584 2113 2584 
z
M 3366 4563 
L 3366 3988 
Q 3128 4100 2886 4159 
Q 2644 4219 2406 4219 
Q 1781 4219 1451 3797 
Q 1122 3375 1075 2522 
Q 1259 2794 1537 2939 
Q 1816 3084 2150 3084 
Q 2853 3084 3261 2657 
Q 3669 2231 3669 1497 
Q 3669 778 3244 343 
Q 2819 -91 2113 -91 
Q 1303 -91 875 529 
Q 447 1150 447 2328 
Q 447 3434 972 4092 
Q 1497 4750 2381 4750 
Q 2619 4750 2861 4703 
Q 3103 4656 3366 4563 
z
" transform="scale(0.015625)"/>
       </defs>
       <use xlink:href="#DejaVuSans-2212"/>
       <use xlink:href="#DejaVuSans-36" transform="translate(83.789062 0)"/>
      </g>
     </g>
    </g>
    <g id="xtick_2">
     <g id="line2d_3">
      <path d="M 101.462901 307.584 
L 101.462901 41.472 
" clip-path="url(#pf215f755b8)" style="fill: none; stroke: #b0b0b0; stroke-width: 0.8; stroke-linecap: square"/>
     </g>
     <g id="line2d_4">
      <g>
       <use xlink:href="#mfc4bad4239" x="101.462901" y="307.584" style="stroke: #000000; stroke-width: 0.8"/>
      </g>
     </g>
     <g id="text_2">
      <!-- −4 -->
      <g transform="translate(94.091808 322.182437) scale(0.1 -0.1)">
       <defs>
        <path id="DejaVuSans-34" d="M 2419 4116 
L 825 1625 
L 2419 1625 
L 2419 4116 
z
M 2253 4666 
L 3047 4666 
L 3047 1625 
L 3713 1625 
L 3713 1100 
L 3047 1100 
L 3047 0 
L 2419 0 
L 2419 1100 
L 313 1100 
L 313 1709 
L 2253 4666 
z
" transform="scale(0.015625)"/>
       </defs>
       <use xlink:href="#DejaVuSans-2212"/>
       <use xlink:href="#DejaVuSans-34" transform="translate(83.789062 0)"/>
      </g>
     </g>
    </g>
    <g id="xtick_3">
     <g id="line2d_5">
      <path d="M 129.093075 307.584 
L 129.093075 41.472 
" clip-path="url(#pf215f755b8)" style="fill: none; stroke: #b0b0b0; stroke-width: 0.8; stroke-linecap: square"/>
     </g>
     <g id="line2d_6">
      <g>
       <use xlink:href="#mfc4bad4239" x="129.093075" y="307.584" style="stroke: #000000; stroke-width: 0.8"/>
      </g>
     </g>
     <g id="text_3">
      <!-- −2 -->
      <g transform="translate(121.721982 322.182437) scale(0.1 -0.1)">
       <defs>
        <path id="DejaVuSans-32" d="M 1228 531 
L 3431 531 
L 3431 0 
L 469 0 
L 469 531 
Q 828 903 1448 1529 
Q 2069 2156 2228 2338 
Q 2531 2678 2651 2914 
Q 2772 3150 2772 3378 
Q 2772 3750 2511 3984 
Q 2250 4219 1831 4219 
Q 1534 4219 1204 4116 
Q 875 4013 500 3803 
L 500 4441 
Q 881 4594 1212 4672 
Q 1544 4750 1819 4750 
Q 2544 4750 2975 4387 
Q 3406 4025 3406 3419 
Q 3406 3131 3298 2873 
Q 3191 2616 2906 2266 
Q 2828 2175 2409 1742 
Q 1991 1309 1228 531 
z
" transform="scale(0.015625)"/>
       </defs>
       <use xlink:href="#DejaVuSans-2212"/>
       <use xlink:href="#DejaVuSans-32" transform="translate(83.789062 0)"/>
      </g>
     </g>
    </g>
    <g id="xtick_4">
     <g id="line2d_7">
      <path d="M 156.72325 307.584 
L 156.72325 41.472 
" clip-path="url(#pf215f755b8)" style="fill: none; stroke: #b0b0b0; stroke-width: 0.8; stroke-linecap: square"/>
     </g>
     <g id="line2d_8">
      <g>
       <use xlink:href="#mfc4bad4239" x="156.72325" y="307.584" style="stroke: #000000; stroke-width: 0.8"/>
      </g>
     </g>
     <g id="text_4">
      <!-- 0 -->
      <g transform="translate(153.542 322.182437) scale(0.1 -0.1)">
       <defs>
        <path id="DejaVuSans-30" d="M 2034 4250 
Q 1547 4250 1301 3770 
Q 1056 3291 1056 2328 
Q 1056 1369 1301 889 
Q 1547 409 2034 409 
Q 2525 409 2770 889 
Q 3016 1369 3016 2328 
Q 3016 3291 2770 3770 
Q 2525 4250 2034 4250 
z
M 2034 4750 
Q 2819 4750 3233 4129 
Q 3647 3509 3647 2328 
Q 3647 1150 3233 529 
Q 2819 -91 2034 -91 
Q 1250 -91 836 529 
Q 422 1150 422 2328 
Q 422 3509 836 4129 
Q 1250 4750 2034 4750 
z
" transform="scale(0.015625)"/>
       </defs>
       <use xlink:href="#DejaVuSans-30"/>
      </g>
     </g>
    </g>
    <g id="xtick_5">
     <g id="line2d_9">
      <path d="M 184.353424 307.584 
L 184.353424 41.472 
" clip-path="url(#pf215f755b8)" style="fill: none; stroke: #b0b0b0; stroke-width: 0.8; stroke-linecap: square"/>
     </g>
     <g id="line2d_10">
      <g>
       <use xlink:href="#mfc4bad4239" x="184.353424" y="307.584" style="stroke: #000000; stroke-width: 0.8"/>
      </g>
     </g>
     <g id="text_5">
      <!-- 2 -->
      <g transform="translate(181.172174 322.182437) scale(0.1 -0.1)">
       <use xlink:href="#DejaVuSans-32"/>
      </g>
     </g>
    </g>
    <g id="xtick_6">
     <g id="line2d_11">
      <path d="M 211.983598 307.584 
L 211.983598 41.472 
" clip-path="url(#pf215f755b8)" style="fill: none; stroke: #b0b0b0; stroke-width: 0.8; stroke-linecap: square"/>
     </g>
     <g id="line2d_12">
      <g>
       <use xlink:href="#mfc4bad4239" x="211.983598" y="307.584" style="stroke: #000000; stroke-width: 0.8"/>
      </g>
     </g>
     <g id="text_6">
      <!-- 4 -->
      <g transform="translate(208.802348 322.182437) scale(0.1 -0.1)">
       <use xlink:href="#DejaVuSans-34"/>
      </g>
     </g>
    </g>
    <g id="xtick_7">
     <g id="line2d_13">
      <path d="M 239.613772 307.584 
L 239.613772 41.472 
" clip-path="url(#pf215f755b8)" style="fill: none; stroke: #b0b0b0; stroke-width: 0.8; stroke-linecap: square"/>
     </g>
     <g id="line2d_14">
      <g>
       <use xlink:href="#mfc4bad4239" x="239.613772" y="307.584" style="stroke: #000000; stroke-width: 0.8"/>
      </g>
     </g>
     <g id="text_7">
      <!-- 6 -->
      <g transform="translate(236.432522 322.182437) scale(0.1 -0.1)">
       <use xlink:href="#DejaVuSans-36"/>
      </g>
     </g>
    </g>
    <g id="xtick_8">
     <g id="line2d_15">
      <path d="M 267.243946 307.584 
L 267.243946 41.472 
" clip-path="url(#pf215f755b8)" style="fill: none; stroke: #b0b0b0; stroke-width: 0.8; stroke-linecap: square"/>
     </g>
     <g id="line2d_16">
      <g>
       <use xlink:href="#mfc4bad4239" x="267.243946" y="307.584" style="stroke: #000000; stroke-width: 0.8"/>
      </g>
     </g>
     <g id="text_8">
      <!-- 8 -->
      <g transform="translate(264.062696 322.182437) scale(0.1 -0.1)">
       <defs>
        <path id="DejaVuSans-38" d="M 2034 2216 
Q 1584 2216 1326 1975 
Q 1069 1734 1069 1313 
Q 1069 891 1326 650 
Q 1584 409 2034 409 
Q 2484 409 2743 651 
Q 3003 894 3003 1313 
Q 3003 1734 2745 1975 
Q 2488 2216 2034 2216 
z
M 1403 2484 
Q 997 2584 770 2862 
Q 544 3141 544 3541 
Q 544 4100 942 4425 
Q 1341 4750 2034 4750 
Q 2731 4750 3128 4425 
Q 3525 4100 3525 3541 
Q 3525 3141 3298 2862 
Q 3072 2584 2669 2484 
Q 3125 2378 3379 2068 
Q 3634 1759 3634 1313 
Q 3634 634 3220 271 
Q 2806 -91 2034 -91 
Q 1263 -91 848 271 
Q 434 634 434 1313 
Q 434 1759 690 2068 
Q 947 2378 1403 2484 
z
M 1172 3481 
Q 1172 3119 1398 2916 
Q 1625 2713 2034 2713 
Q 2441 2713 2670 2916 
Q 2900 3119 2900 3481 
Q 2900 3844 2670 4047 
Q 2441 4250 2034 4250 
Q 1625 4250 1398 4047 
Q 1172 3844 1172 3481 
z
" transform="scale(0.015625)"/>
       </defs>
       <use xlink:href="#DejaVuSans-38"/>
      </g>
     </g>
    </g>
    <g id="xtick_9">
     <g id="line2d_17">
      <path d="M 294.87412 307.584 
L 294.87412 41.472 
" clip-path="url(#pf215f755b8)" style="fill: none; stroke: #b0b0b0; stroke-width: 0.8; stroke-linecap: square"/>
     </g>
     <g id="line2d_18">
      <g>
       <use xlink:href="#mfc4bad4239" x="294.87412" y="307.584" style="stroke: #000000; stroke-width: 0.8"/>
      </g>
     </g>
     <g id="text_9">
      <!-- 10 -->
      <g transform="translate(288.51162 322.182437) scale(0.1 -0.1)">
       <defs>
        <path id="DejaVuSans-31" d="M 794 531 
L 1825 531 
L 1825 4091 
L 703 3866 
L 703 4441 
L 1819 4666 
L 2450 4666 
L 2450 531 
L 3481 531 
L 3481 0 
L 794 0 
L 794 531 
z
" transform="scale(0.015625)"/>
       </defs>
       <use xlink:href="#DejaVuSans-31"/>
       <use xlink:href="#DejaVuSans-30" transform="translate(63.623047 0)"/>
      </g>
     </g>
    </g>
    <g id="xtick_10">
     <g id="line2d_19">
      <path d="M 322.504294 307.584 
L 322.504294 41.472 
" clip-path="url(#pf215f755b8)" style="fill: none; stroke: #b0b0b0; stroke-width: 0.8; stroke-linecap: square"/>
     </g>
     <g id="line2d_20">
      <g>
       <use xlink:href="#mfc4bad4239" x="322.504294" y="307.584" style="stroke: #000000; stroke-width: 0.8"/>
      </g>
     </g>
     <g id="text_10">
      <!-- 12 -->
      <g transform="translate(316.141794 322.182437) scale(0.1 -0.1)">
       <use xlink:href="#DejaVuSans-31"/>
       <use xlink:href="#DejaVuSans-32" transform="translate(63.623047 0)"/>
      </g>
     </g>
    </g>
    <g id="xtick_11">
     <g id="line2d_21">
      <path d="M 350.134468 307.584 
L 350.134468 41.472 
" clip-path="url(#pf215f755b8)" style="fill: none; stroke: #b0b0b0; stroke-width: 0.8; stroke-linecap: square"/>
     </g>
     <g id="line2d_22">
      <g>
       <use xlink:href="#mfc4bad4239" x="350.134468" y="307.584" style="stroke: #000000; stroke-width: 0.8"/>
      </g>
     </g>
     <g id="text_11">
      <!-- 14 -->
      <g transform="translate(343.771968 322.182437) scale(0.1 -0.1)">
       <use xlink:href="#DejaVuSans-31"/>
       <use xlink:href="#DejaVuSans-34" transform="translate(63.623047 0)"/>
      </g>
     </g>
    </g>
    <g id="xtick_12">
     <g id="line2d_23">
      <path d="M 377.764642 307.584 
L 377.764642 41.472 
" clip-path="url(#pf215f755b8)" style="fill: none; stroke: #b0b0b0; stroke-width: 0.8; stroke-linecap: square"/>
     </g>
     <g id="line2d_24">
      <g>
       <use xlink:href="#mfc4bad4239" x="377.764642" y="307.584" style="stroke: #000000; stroke-width: 0.8"/>
      </g>
     </g>
     <g id="text_12">
      <!-- 16 -->
      <g transform="translate(371.402142 322.182437) scale(0.1 -0.1)">
       <use xlink:href="#DejaVuSans-31"/>
       <use xlink:href="#DejaVuSans-36" transform="translate(63.623047 0)"/>
      </g>
     </g>
    </g>
    <g id="xtick_13">
     <g id="line2d_25">
      <path d="M 405.394816 307.584 
L 405.394816 41.472 
" clip-path="url(#pf215f755b8)" style="fill: none; stroke: #b0b0b0; stroke-width: 0.8; stroke-linecap: square"/>
     </g>
     <g id="line2d_26">
      <g>
       <use xlink:href="#mfc4bad4239" x="405.394816" y="307.584" style="stroke: #000000; stroke-width: 0.8"/>
      </g>
     </g>
     <g id="text_13">
      <!-- 18 -->
      <g transform="translate(399.032316 322.182437) scale(0.1 -0.1)">
       <use xlink:href="#DejaVuSans-31"/>
       <use xlink:href="#DejaVuSans-38" transform="translate(63.623047 0)"/>
      </g>
     </g>
    </g>
    <g id="text_14">
     <!-- $\alpha \quad [\deg]$ -->
     <g transform="translate(214.66 335.862125) scale(0.1 -0.1)">
      <defs>
       <path id="DejaVuSans-Oblique-3b1" d="M 2619 1628 
L 2622 2350 
Q 2625 3088 2069 3091 
Q 1653 3094 1394 2747 
Q 1069 2319 959 1747 
Q 825 1059 994 731 
Q 1169 397 1547 397 
Q 1966 397 2319 1063 
L 2619 1628 
z
M 2166 3578 
Q 3141 3594 3128 2584 
Q 3128 2584 3616 3500 
L 4128 3500 
L 3119 1603 
L 3109 919 
Q 3109 766 3194 638 
Q 3291 488 3391 488 
L 3669 488 
L 3575 0 
L 3228 0 
Q 2934 0 2722 263 
Q 2622 394 2619 669 
Q 2416 334 2066 50 
Q 1900 -81 1453 -78 
Q 722 -72 456 397 
Q 184 884 353 1747 
Q 534 2675 1009 3097 
Q 1544 3569 2166 3578 
z
" transform="scale(0.015625)"/>
       <path id="DejaVuSans-5b" d="M 550 4863 
L 1875 4863 
L 1875 4416 
L 1125 4416 
L 1125 -397 
L 1875 -397 
L 1875 -844 
L 550 -844 
L 550 4863 
z
" transform="scale(0.015625)"/>
       <path id="DejaVuSans-64" d="M 2906 2969 
L 2906 4863 
L 3481 4863 
L 3481 0 
L 2906 0 
L 2906 525 
Q 2725 213 2448 61 
Q 2172 -91 1784 -91 
Q 1150 -91 751 415 
Q 353 922 353 1747 
Q 353 2572 751 3078 
Q 1150 3584 1784 3584 
Q 2172 3584 2448 3432 
Q 2725 3281 2906 2969 
z
M 947 1747 
Q 947 1113 1208 752 
Q 1469 391 1925 391 
Q 2381 391 2643 752 
Q 2906 1113 2906 1747 
Q 2906 2381 2643 2742 
Q 2381 3103 1925 3103 
Q 1469 3103 1208 2742 
Q 947 2381 947 1747 
z
" transform="scale(0.015625)"/>
       <path id="DejaVuSans-65" d="M 3597 1894 
L 3597 1613 
L 953 1613 
Q 991 1019 1311 708 
Q 1631 397 2203 397 
Q 2534 397 2845 478 
Q 3156 559 3463 722 
L 3463 178 
Q 3153 47 2828 -22 
Q 2503 -91 2169 -91 
Q 1331 -91 842 396 
Q 353 884 353 1716 
Q 353 2575 817 3079 
Q 1281 3584 2069 3584 
Q 2775 3584 3186 3129 
Q 3597 2675 3597 1894 
z
M 3022 2063 
Q 3016 2534 2758 2815 
Q 2500 3097 2075 3097 
Q 1594 3097 1305 2825 
Q 1016 2553 972 2059 
L 3022 2063 
z
" transform="scale(0.015625)"/>
       <path id="DejaVuSans-67" d="M 2906 1791 
Q 2906 2416 2648 2759 
Q 2391 3103 1925 3103 
Q 1463 3103 1205 2759 
Q 947 2416 947 1791 
Q 947 1169 1205 825 
Q 1463 481 1925 481 
Q 2391 481 2648 825 
Q 2906 1169 2906 1791 
z
M 3481 434 
Q 3481 -459 3084 -895 
Q 2688 -1331 1869 -1331 
Q 1566 -1331 1297 -1286 
Q 1028 -1241 775 -1147 
L 775 -588 
Q 1028 -725 1275 -790 
Q 1522 -856 1778 -856 
Q 2344 -856 2625 -561 
Q 2906 -266 2906 331 
L 2906 616 
Q 2728 306 2450 153 
Q 2172 0 1784 0 
Q 1141 0 747 490 
Q 353 981 353 1791 
Q 353 2603 747 3093 
Q 1141 3584 1784 3584 
Q 2172 3584 2450 3431 
Q 2728 3278 2906 2969 
L 2906 3500 
L 3481 3500 
L 3481 434 
z
" transform="scale(0.015625)"/>
       <path id="DejaVuSans-5d" d="M 1947 4863 
L 1947 -844 
L 622 -844 
L 622 -397 
L 1369 -397 
L 1369 4416 
L 622 4416 
L 622 4863 
L 1947 4863 
z
" transform="scale(0.015625)"/>
      </defs>
      <use xlink:href="#DejaVuSans-Oblique-3b1" transform="translate(0 0.015625)"/>
      <use xlink:href="#DejaVuSans-5b" transform="translate(163.330078 0.015625)"/>
      <use xlink:href="#DejaVuSans-64" transform="translate(202.34375 0.015625)"/>
      <use xlink:href="#DejaVuSans-65" transform="translate(265.820312 0.015625)"/>
      <use xlink:href="#DejaVuSans-67" transform="translate(327.34375 0.015625)"/>
      <use xlink:href="#DejaVuSans-5d" transform="translate(390.820312 0.015625)"/>
     </g>
    </g>
   </g>
   <g id="matplotlib.axis_2">
    <g id="ytick_1">
     <g id="line2d_27">
      <path d="M 57.6 295.567261 
L 414.72 295.567261 
" clip-path="url(#pf215f755b8)" style="fill: none; stroke: #b0b0b0; stroke-width: 0.8; stroke-linecap: square"/>
     </g>
     <g id="line2d_28">
      <defs>
       <path id="md7c0f4d2f6" d="M 0 0 
L -3.5 0 
" style="stroke: #000000; stroke-width: 0.8"/>
      </defs>
      <g>
       <use xlink:href="#md7c0f4d2f6" x="57.6" y="295.567261" style="stroke: #000000; stroke-width: 0.8"/>
      </g>
     </g>
     <g id="text_15">
      <!-- 0.00 -->
      <g transform="translate(28.334375 299.36648) scale(0.1 -0.1)">
       <defs>
        <path id="DejaVuSans-2e" d="M 684 794 
L 1344 794 
L 1344 0 
L 684 0 
L 684 794 
z
" transform="scale(0.015625)"/>
       </defs>
       <use xlink:href="#DejaVuSans-30"/>
       <use xlink:href="#DejaVuSans-2e" transform="translate(63.623047 0)"/>
       <use xlink:href="#DejaVuSans-30" transform="translate(95.410156 0)"/>
       <use xlink:href="#DejaVuSans-30" transform="translate(159.033203 0)"/>
      </g>
     </g>
    </g>
    <g id="ytick_2">
     <g id="line2d_29">
      <path d="M 57.6 248.153323 
L 414.72 248.153323 
" clip-path="url(#pf215f755b8)" style="fill: none; stroke: #b0b0b0; stroke-width: 0.8; stroke-linecap: square"/>
     </g>
     <g id="line2d_30">
      <g>
       <use xlink:href="#md7c0f4d2f6" x="57.6" y="248.153323" style="stroke: #000000; stroke-width: 0.8"/>
      </g>
     </g>
     <g id="text_16">
      <!-- 0.05 -->
      <g transform="translate(28.334375 251.952542) scale(0.1 -0.1)">
       <defs>
        <path id="DejaVuSans-35" d="M 691 4666 
L 3169 4666 
L 3169 4134 
L 1269 4134 
L 1269 2991 
Q 1406 3038 1543 3061 
Q 1681 3084 1819 3084 
Q 2600 3084 3056 2656 
Q 3513 2228 3513 1497 
Q 3513 744 3044 326 
Q 2575 -91 1722 -91 
Q 1428 -91 1123 -41 
Q 819 9 494 109 
L 494 744 
Q 775 591 1075 516 
Q 1375 441 1709 441 
Q 2250 441 2565 725 
Q 2881 1009 2881 1497 
Q 2881 1984 2565 2268 
Q 2250 2553 1709 2553 
Q 1456 2553 1204 2497 
Q 953 2441 691 2322 
L 691 4666 
z
" transform="scale(0.015625)"/>
       </defs>
       <use xlink:href="#DejaVuSans-30"/>
       <use xlink:href="#DejaVuSans-2e" transform="translate(63.623047 0)"/>
       <use xlink:href="#DejaVuSans-30" transform="translate(95.410156 0)"/>
       <use xlink:href="#DejaVuSans-35" transform="translate(159.033203 0)"/>
      </g>
     </g>
    </g>
    <g id="ytick_3">
     <g id="line2d_31">
      <path d="M 57.6 200.739385 
L 414.72 200.739385 
" clip-path="url(#pf215f755b8)" style="fill: none; stroke: #b0b0b0; stroke-width: 0.8; stroke-linecap: square"/>
     </g>
     <g id="line2d_32">
      <g>
       <use xlink:href="#md7c0f4d2f6" x="57.6" y="200.739385" style="stroke: #000000; stroke-width: 0.8"/>
      </g>
     </g>
     <g id="text_17">
      <!-- 0.10 -->
      <g transform="translate(28.334375 204.538604) scale(0.1 -0.1)">
       <use xlink:href="#DejaVuSans-30"/>
       <use xlink:href="#DejaVuSans-2e" transform="translate(63.623047 0)"/>
       <use xlink:href="#DejaVuSans-31" transform="translate(95.410156 0)"/>
       <use xlink:href="#DejaVuSans-30" transform="translate(159.033203 0)"/>
      </g>
     </g>
    </g>
    <g id="ytick_4">
     <g id="line2d_33">
      <path d="M 57.6 153.325447 
L 414.72 153.325447 
" clip-path="url(#pf215f755b8)" style="fill: none; stroke: #b0b0b0; stroke-width: 0.8; stroke-linecap: square"/>
     </g>
     <g id="line2d_34">
      <g>
       <use xlink:href="#md7c0f4d2f6" x="57.6" y="153.325447" style="stroke: #000000; stroke-width: 0.8"/>
      </g>
     </g>
     <g id="text_18">
      <!-- 0.15 -->
      <g transform="translate(28.334375 157.124665) scale(0.1 -0.1)">
       <use xlink:href="#DejaVuSans-30"/>
       <use xlink:href="#DejaVuSans-2e" transform="translate(63.623047 0)"/>
       <use xlink:href="#DejaVuSans-31" transform="translate(95.410156 0)"/>
       <use xlink:href="#DejaVuSans-35" transform="translate(159.033203 0)"/>
      </g>
     </g>
    </g>
    <g id="ytick_5">
     <g id="line2d_35">
      <path d="M 57.6 105.911509 
L 414.72 105.911509 
" clip-path="url(#pf215f755b8)" style="fill: none; stroke: #b0b0b0; stroke-width: 0.8; stroke-linecap: square"/>
     </g>
     <g id="line2d_36">
      <g>
       <use xlink:href="#md7c0f4d2f6" x="57.6" y="105.911509" style="stroke: #000000; stroke-width: 0.8"/>
      </g>
     </g>
     <g id="text_19">
      <!-- 0.20 -->
      <g transform="translate(28.334375 109.710727) scale(0.1 -0.1)">
       <use xlink:href="#DejaVuSans-30"/>
       <use xlink:href="#DejaVuSans-2e" transform="translate(63.623047 0)"/>
       <use xlink:href="#DejaVuSans-32" transform="translate(95.410156 0)"/>
       <use xlink:href="#DejaVuSans-30" transform="translate(159.033203 0)"/>
      </g>
     </g>
    </g>
    <g id="ytick_6">
     <g id="line2d_37">
      <path d="M 57.6 58.49757 
L 414.72 58.49757 
" clip-path="url(#pf215f755b8)" style="fill: none; stroke: #b0b0b0; stroke-width: 0.8; stroke-linecap: square"/>
     </g>
     <g id="line2d_38">
      <g>
       <use xlink:href="#md7c0f4d2f6" x="57.6" y="58.49757" style="stroke: #000000; stroke-width: 0.8"/>
      </g>
     </g>
     <g id="text_20">
      <!-- 0.25 -->
      <g transform="translate(28.334375 62.296789) scale(0.1 -0.1)">
       <use xlink:href="#DejaVuSans-30"/>
       <use xlink:href="#DejaVuSans-2e" transform="translate(63.623047 0)"/>
       <use xlink:href="#DejaVuSans-32" transform="translate(95.410156 0)"/>
       <use xlink:href="#DejaVuSans-35" transform="translate(159.033203 0)"/>
      </g>
     </g>
    </g>
    <g id="text_21">
     <!-- $c_D \quad [-]$ -->
     <g transform="translate(22.254687 193.078) rotate(-90) scale(0.1 -0.1)">
      <defs>
       <path id="DejaVuSans-Oblique-63" d="M 3431 3366 
L 3316 2797 
Q 3109 2947 2876 3022 
Q 2644 3097 2394 3097 
Q 2119 3097 1870 3000 
Q 1622 2903 1453 2725 
Q 1184 2453 1037 2087 
Q 891 1722 891 1331 
Q 891 859 1127 628 
Q 1363 397 1844 397 
Q 2081 397 2348 469 
Q 2616 541 2906 684 
L 2797 116 
Q 2547 13 2283 -39 
Q 2019 -91 1741 -91 
Q 1044 -91 669 257 
Q 294 606 294 1253 
Q 294 1797 489 2255 
Q 684 2713 1069 3078 
Q 1331 3328 1684 3456 
Q 2038 3584 2456 3584 
Q 2700 3584 2940 3529 
Q 3181 3475 3431 3366 
z
" transform="scale(0.015625)"/>
       <path id="DejaVuSans-Oblique-44" d="M 1081 4666 
L 2438 4666 
Q 3519 4666 4070 4208 
Q 4622 3750 4622 2847 
Q 4622 2250 4412 1698 
Q 4203 1147 3834 769 
Q 3463 381 2891 190 
Q 2319 0 1538 0 
L 172 0 
L 1081 4666 
z
M 1613 4147 
L 909 519 
L 1734 519 
Q 2794 519 3375 1128 
Q 3956 1738 3956 2847 
Q 3956 3519 3581 3833 
Q 3206 4147 2406 4147 
L 1613 4147 
z
" transform="scale(0.015625)"/>
      </defs>
      <use xlink:href="#DejaVuSans-Oblique-63" transform="translate(0 0.015625)"/>
      <use xlink:href="#DejaVuSans-Oblique-44" transform="translate(54.980469 -16.390625) scale(0.7)"/>
      <use xlink:href="#DejaVuSans-5b" transform="translate(209.02832 0.015625)"/>
      <use xlink:href="#DejaVuSans-2212" transform="translate(248.041992 0.015625)"/>
      <use xlink:href="#DejaVuSans-5d" transform="translate(331.831055 0.015625)"/>
     </g>
    </g>
   </g>
   <g id="line2d_39">
    <path d="M 57.6 295.567261 
L 414.72 295.567261 
" clip-path="url(#pf215f755b8)" style="fill: none; stroke-dasharray: 5.55,2.4; stroke-dashoffset: 0; stroke: #000000; stroke-width: 1.5"/>
   </g>
   <g id="line2d_40">
    <path d="M 156.72325 307.584 
L 156.72325 41.472 
" clip-path="url(#pf215f755b8)" style="fill: none; stroke-dasharray: 5.55,2.4; stroke-dashoffset: 0; stroke: #000000; stroke-width: 1.5"/>
   </g>
   <g id="patch_3">
    <path d="M 57.6 307.584 
L 57.6 41.472 
" style="fill: none; stroke: #000000; stroke-width: 0.8; stroke-linejoin: miter; stroke-linecap: square"/>
   </g>
   <g id="patch_4">
    <path d="M 414.72 307.584 
L 414.72 41.472 
" style="fill: none; stroke: #000000; stroke-width: 0.8; stroke-linejoin: miter; stroke-linecap: square"/>
   </g>
   <g id="patch_5">
    <path d="M 57.6 307.584 
L 414.72 307.584 
" style="fill: none; stroke: #000000; stroke-width: 0.8; stroke-linejoin: miter; stroke-linecap: square"/>
   </g>
   <g id="patch_6">
    <path d="M 57.6 41.472 
L 414.72 41.472 
" style="fill: none; stroke: #000000; stroke-width: 0.8; stroke-linejoin: miter; stroke-linecap: square"/>
   </g>
   <g id="legend_1">
    <g id="patch_7">
     <path d="M 159.474844 78.82825 
L 312.845156 78.82825 
Q 314.845156 78.82825 314.845156 76.82825 
L 314.845156 48.472 
Q 314.845156 46.472 312.845156 46.472 
L 159.474844 46.472 
Q 157.474844 46.472 157.474844 48.472 
L 157.474844 76.82825 
Q 157.474844 78.82825 159.474844 78.82825 
z
" style="fill: #ffffff; opacity: 0.8; stroke: #cccccc; stroke-linejoin: miter"/>
    </g>
    <g id="line2d_41">
     <path d="M 161.474844 54.570437 
L 171.474844 54.570437 
L 181.474844 54.570437 
" style="fill: none; stroke: #1f77b4; stroke-width: 1.5; stroke-linecap: square"/>
     <defs>
      <path id="m5a215d792c" d="M 0 3 
C 0.795609 3 1.55874 2.683901 2.12132 2.12132 
C 2.683901 1.55874 3 0.795609 3 0 
C 3 -0.795609 2.683901 -1.55874 2.12132 -2.12132 
C 1.55874 -2.683901 0.795609 -3 0 -3 
C -0.795609 -3 -1.55874 -2.683901 -2.12132 -2.12132 
C -2.683901 -1.55874 -3 -0.795609 -3 0 
C -3 0.795609 -2.683901 1.55874 -2.12132 2.12132 
C -1.55874 2.683901 -0.795609 3 0 3 
z
" style="stroke: #1f77b4"/>
     </defs>
     <g>
      <use xlink:href="#m5a215d792c" x="171.474844" y="54.570437" style="fill: #1f77b4; stroke: #1f77b4"/>
     </g>
    </g>
    <g id="text_22">
     <!-- induced drag coefficient -->
     <g transform="translate(189.474844 58.070437) scale(0.1 -0.1)">
      <defs>
       <path id="DejaVuSans-69" d="M 603 3500 
L 1178 3500 
L 1178 0 
L 603 0 
L 603 3500 
z
M 603 4863 
L 1178 4863 
L 1178 4134 
L 603 4134 
L 603 4863 
z
" transform="scale(0.015625)"/>
       <path id="DejaVuSans-6e" d="M 3513 2113 
L 3513 0 
L 2938 0 
L 2938 2094 
Q 2938 2591 2744 2837 
Q 2550 3084 2163 3084 
Q 1697 3084 1428 2787 
Q 1159 2491 1159 1978 
L 1159 0 
L 581 0 
L 581 3500 
L 1159 3500 
L 1159 2956 
Q 1366 3272 1645 3428 
Q 1925 3584 2291 3584 
Q 2894 3584 3203 3211 
Q 3513 2838 3513 2113 
z
" transform="scale(0.015625)"/>
       <path id="DejaVuSans-75" d="M 544 1381 
L 544 3500 
L 1119 3500 
L 1119 1403 
Q 1119 906 1312 657 
Q 1506 409 1894 409 
Q 2359 409 2629 706 
Q 2900 1003 2900 1516 
L 2900 3500 
L 3475 3500 
L 3475 0 
L 2900 0 
L 2900 538 
Q 2691 219 2414 64 
Q 2138 -91 1772 -91 
Q 1169 -91 856 284 
Q 544 659 544 1381 
z
M 1991 3584 
L 1991 3584 
z
" transform="scale(0.015625)"/>
       <path id="DejaVuSans-63" d="M 3122 3366 
L 3122 2828 
Q 2878 2963 2633 3030 
Q 2388 3097 2138 3097 
Q 1578 3097 1268 2742 
Q 959 2388 959 1747 
Q 959 1106 1268 751 
Q 1578 397 2138 397 
Q 2388 397 2633 464 
Q 2878 531 3122 666 
L 3122 134 
Q 2881 22 2623 -34 
Q 2366 -91 2075 -91 
Q 1284 -91 818 406 
Q 353 903 353 1747 
Q 353 2603 823 3093 
Q 1294 3584 2113 3584 
Q 2378 3584 2631 3529 
Q 2884 3475 3122 3366 
z
" transform="scale(0.015625)"/>
       <path id="DejaVuSans-20" transform="scale(0.015625)"/>
       <path id="DejaVuSans-72" d="M 2631 2963 
Q 2534 3019 2420 3045 
Q 2306 3072 2169 3072 
Q 1681 3072 1420 2755 
Q 1159 2438 1159 1844 
L 1159 0 
L 581 0 
L 581 3500 
L 1159 3500 
L 1159 2956 
Q 1341 3275 1631 3429 
Q 1922 3584 2338 3584 
Q 2397 3584 2469 3576 
Q 2541 3569 2628 3553 
L 2631 2963 
z
" transform="scale(0.015625)"/>
       <path id="DejaVuSans-61" d="M 2194 1759 
Q 1497 1759 1228 1600 
Q 959 1441 959 1056 
Q 959 750 1161 570 
Q 1363 391 1709 391 
Q 2188 391 2477 730 
Q 2766 1069 2766 1631 
L 2766 1759 
L 2194 1759 
z
M 3341 1997 
L 3341 0 
L 2766 0 
L 2766 531 
Q 2569 213 2275 61 
Q 1981 -91 1556 -91 
Q 1019 -91 701 211 
Q 384 513 384 1019 
Q 384 1609 779 1909 
Q 1175 2209 1959 2209 
L 2766 2209 
L 2766 2266 
Q 2766 2663 2505 2880 
Q 2244 3097 1772 3097 
Q 1472 3097 1187 3025 
Q 903 2953 641 2809 
L 641 3341 
Q 956 3463 1253 3523 
Q 1550 3584 1831 3584 
Q 2591 3584 2966 3190 
Q 3341 2797 3341 1997 
z
" transform="scale(0.015625)"/>
       <path id="DejaVuSans-6f" d="M 1959 3097 
Q 1497 3097 1228 2736 
Q 959 2375 959 1747 
Q 959 1119 1226 758 
Q 1494 397 1959 397 
Q 2419 397 2687 759 
Q 2956 1122 2956 1747 
Q 2956 2369 2687 2733 
Q 2419 3097 1959 3097 
z
M 1959 3584 
Q 2709 3584 3137 3096 
Q 3566 2609 3566 1747 
Q 3566 888 3137 398 
Q 2709 -91 1959 -91 
Q 1206 -91 779 398 
Q 353 888 353 1747 
Q 353 2609 779 3096 
Q 1206 3584 1959 3584 
z
" transform="scale(0.015625)"/>
       <path id="DejaVuSans-66" d="M 2375 4863 
L 2375 4384 
L 1825 4384 
Q 1516 4384 1395 4259 
Q 1275 4134 1275 3809 
L 1275 3500 
L 2222 3500 
L 2222 3053 
L 1275 3053 
L 1275 0 
L 697 0 
L 697 3053 
L 147 3053 
L 147 3500 
L 697 3500 
L 697 3744 
Q 697 4328 969 4595 
Q 1241 4863 1831 4863 
L 2375 4863 
z
" transform="scale(0.015625)"/>
       <path id="DejaVuSans-74" d="M 1172 4494 
L 1172 3500 
L 2356 3500 
L 2356 3053 
L 1172 3053 
L 1172 1153 
Q 1172 725 1289 603 
Q 1406 481 1766 481 
L 2356 481 
L 2356 0 
L 1766 0 
Q 1100 0 847 248 
Q 594 497 594 1153 
L 594 3053 
L 172 3053 
L 172 3500 
L 594 3500 
L 594 4494 
L 1172 4494 
z
" transform="scale(0.015625)"/>
      </defs>
      <use xlink:href="#DejaVuSans-69"/>
      <use xlink:href="#DejaVuSans-6e" transform="translate(27.783203 0)"/>
      <use xlink:href="#DejaVuSans-64" transform="translate(91.162109 0)"/>
      <use xlink:href="#DejaVuSans-75" transform="translate(154.638672 0)"/>
      <use xlink:href="#DejaVuSans-63" transform="translate(218.017578 0)"/>
      <use xlink:href="#DejaVuSans-65" transform="translate(272.998047 0)"/>
      <use xlink:href="#DejaVuSans-64" transform="translate(334.521484 0)"/>
      <use xlink:href="#DejaVuSans-20" transform="translate(397.998047 0)"/>
      <use xlink:href="#DejaVuSans-64" transform="translate(429.785156 0)"/>
      <use xlink:href="#DejaVuSans-72" transform="translate(493.261719 0)"/>
      <use xlink:href="#DejaVuSans-61" transform="translate(534.375 0)"/>
      <use xlink:href="#DejaVuSans-67" transform="translate(595.654297 0)"/>
      <use xlink:href="#DejaVuSans-20" transform="translate(659.130859 0)"/>
      <use xlink:href="#DejaVuSans-63" transform="translate(690.917969 0)"/>
      <use xlink:href="#DejaVuSans-6f" transform="translate(745.898438 0)"/>
      <use xlink:href="#DejaVuSans-65" transform="translate(807.080078 0)"/>
      <use xlink:href="#DejaVuSans-66" transform="translate(868.603516 0)"/>
      <use xlink:href="#DejaVuSans-66" transform="translate(903.808594 0)"/>
      <use xlink:href="#DejaVuSans-69" transform="translate(939.013672 0)"/>
      <use xlink:href="#DejaVuSans-63" transform="translate(966.796875 0)"/>
      <use xlink:href="#DejaVuSans-69" transform="translate(1021.777344 0)"/>
      <use xlink:href="#DejaVuSans-65" transform="translate(1049.560547 0)"/>
      <use xlink:href="#DejaVuSans-6e" transform="translate(1111.083984 0)"/>
      <use xlink:href="#DejaVuSans-74" transform="translate(1174.462891 0)"/>
     </g>
    </g>
    <g id="line2d_42">
     <path d="M 161.474844 69.248562 
L 171.474844 69.248562 
L 181.474844 69.248562 
" style="fill: none; stroke: #ff7f0e; stroke-width: 1.5; stroke-linecap: square"/>
     <defs>
      <path id="m521d2ca590" d="M 0 -3 
L -3 3 
L 3 3 
z
" style="stroke: #ff7f0e; stroke-linejoin: miter"/>
     </defs>
     <g>
      <use xlink:href="#m521d2ca590" x="171.474844" y="69.248562" style="fill: #ff7f0e; stroke: #ff7f0e; stroke-linejoin: miter"/>
     </g>
    </g>
    <g id="text_23">
     <!-- drag coefficient -->
     <g transform="translate(189.474844 72.748562) scale(0.1 -0.1)">
      <use xlink:href="#DejaVuSans-64"/>
      <use xlink:href="#DejaVuSans-72" transform="translate(63.476562 0)"/>
      <use xlink:href="#DejaVuSans-61" transform="translate(104.589844 0)"/>
      <use xlink:href="#DejaVuSans-67" transform="translate(165.869141 0)"/>
      <use xlink:href="#DejaVuSans-20" transform="translate(229.345703 0)"/>
      <use xlink:href="#DejaVuSans-63" transform="translate(261.132812 0)"/>
      <use xlink:href="#DejaVuSans-6f" transform="translate(316.113281 0)"/>
      <use xlink:href="#DejaVuSans-65" transform="translate(377.294922 0)"/>
      <use xlink:href="#DejaVuSans-66" transform="translate(438.818359 0)"/>
      <use xlink:href="#DejaVuSans-66" transform="translate(474.023438 0)"/>
      <use xlink:href="#DejaVuSans-69" transform="translate(509.228516 0)"/>
      <use xlink:href="#DejaVuSans-63" transform="translate(537.011719 0)"/>
      <use xlink:href="#DejaVuSans-69" transform="translate(591.992188 0)"/>
      <use xlink:href="#DejaVuSans-65" transform="translate(619.775391 0)"/>
      <use xlink:href="#DejaVuSans-6e" transform="translate(681.298828 0)"/>
      <use xlink:href="#DejaVuSans-74" transform="translate(744.677734 0)"/>
     </g>
    </g>
   </g>
   <g id="line2d_43">
    <path d="M 73.832727 271.613722 
L 101.462901 281.812425 
L 115.277988 284.107698 
L 129.093075 284.679892 
L 142.908162 284.474102 
L 156.72325 283.590117 
L 170.538337 282.171708 
L 184.353424 279.387858 
L 198.168511 276.341199 
L 211.983598 273.649121 
L 225.798685 269.239448 
L 239.613772 264.358593 
L 253.428859 259.178894 
L 267.243946 253.068977 
L 281.059033 245.914791 
L 294.87412 237.707005 
L 308.689207 230.068578 
L 322.504294 220.947433 
L 329.411838 215.26008 
L 336.319381 210.931366 
L 343.226925 206.284122 
L 350.134468 198.757331 
L 357.042012 190.159366 
L 363.949555 179.091997 
L 370.857099 168.335185 
L 377.764642 77.895992 
L 384.672186 66.141127 
L 391.579729 58.045927 
L 398.487273 53.568 
L 391.579729 61.015333 
L 384.672186 67.050947 
L 377.764642 77.888459 
L 370.857099 94.033932 
L 363.949555 178.209832 
L 357.042012 189.795226 
L 350.134468 199.226247 
L 343.226925 205.128103 
L 336.319381 210.755023 
L 329.411838 215.313054 
L 322.504294 219.960555 
L 315.59675 224.65314 
L 308.689207 228.623354 
L 301.781663 232.860004 
L 294.87412 237.352267 
L 287.966576 241.655535 
L 281.059033 245.462876 
" clip-path="url(#pf215f755b8)" style="fill: none; stroke: #ff7f0e; stroke-width: 1.5; stroke-linecap: square"/>
    <g clip-path="url(#pf215f755b8)">
     <use xlink:href="#m521d2ca590" x="73.832727" y="271.613722" style="fill: #ff7f0e; stroke: #ff7f0e; stroke-linejoin: miter"/>
     <use xlink:href="#m521d2ca590" x="101.462901" y="281.812425" style="fill: #ff7f0e; stroke: #ff7f0e; stroke-linejoin: miter"/>
     <use xlink:href="#m521d2ca590" x="115.277988" y="284.107698" style="fill: #ff7f0e; stroke: #ff7f0e; stroke-linejoin: miter"/>
     <use xlink:href="#m521d2ca590" x="129.093075" y="284.679892" style="fill: #ff7f0e; stroke: #ff7f0e; stroke-linejoin: miter"/>
     <use xlink:href="#m521d2ca590" x="142.908162" y="284.474102" style="fill: #ff7f0e; stroke: #ff7f0e; stroke-linejoin: miter"/>
     <use xlink:href="#m521d2ca590" x="156.72325" y="283.590117" style="fill: #ff7f0e; stroke: #ff7f0e; stroke-linejoin: miter"/>
     <use xlink:href="#m521d2ca590" x="170.538337" y="282.171708" style="fill: #ff7f0e; stroke: #ff7f0e; stroke-linejoin: miter"/>
     <use xlink:href="#m521d2ca590" x="184.353424" y="279.387858" style="fill: #ff7f0e; stroke: #ff7f0e; stroke-linejoin: miter"/>
     <use xlink:href="#m521d2ca590" x="198.168511" y="276.341199" style="fill: #ff7f0e; stroke: #ff7f0e; stroke-linejoin: miter"/>
     <use xlink:href="#m521d2ca590" x="211.983598" y="273.649121" style="fill: #ff7f0e; stroke: #ff7f0e; stroke-linejoin: miter"/>
     <use xlink:href="#m521d2ca590" x="225.798685" y="269.239448" style="fill: #ff7f0e; stroke: #ff7f0e; stroke-linejoin: miter"/>
     <use xlink:href="#m521d2ca590" x="239.613772" y="264.358593" style="fill: #ff7f0e; stroke: #ff7f0e; stroke-linejoin: miter"/>
     <use xlink:href="#m521d2ca590" x="253.428859" y="259.178894" style="fill: #ff7f0e; stroke: #ff7f0e; stroke-linejoin: miter"/>
     <use xlink:href="#m521d2ca590" x="267.243946" y="253.068977" style="fill: #ff7f0e; stroke: #ff7f0e; stroke-linejoin: miter"/>
     <use xlink:href="#m521d2ca590" x="281.059033" y="245.914791" style="fill: #ff7f0e; stroke: #ff7f0e; stroke-linejoin: miter"/>
     <use xlink:href="#m521d2ca590" x="294.87412" y="237.707005" style="fill: #ff7f0e; stroke: #ff7f0e; stroke-linejoin: miter"/>
     <use xlink:href="#m521d2ca590" x="308.689207" y="230.068578" style="fill: #ff7f0e; stroke: #ff7f0e; stroke-linejoin: miter"/>
     <use xlink:href="#m521d2ca590" x="322.504294" y="220.947433" style="fill: #ff7f0e; stroke: #ff7f0e; stroke-linejoin: miter"/>
     <use xlink:href="#m521d2ca590" x="329.411838" y="215.26008" style="fill: #ff7f0e; stroke: #ff7f0e; stroke-linejoin: miter"/>
     <use xlink:href="#m521d2ca590" x="336.319381" y="210.931366" style="fill: #ff7f0e; stroke: #ff7f0e; stroke-linejoin: miter"/>
     <use xlink:href="#m521d2ca590" x="343.226925" y="206.284122" style="fill: #ff7f0e; stroke: #ff7f0e; stroke-linejoin: miter"/>
     <use xlink:href="#m521d2ca590" x="350.134468" y="198.757331" style="fill: #ff7f0e; stroke: #ff7f0e; stroke-linejoin: miter"/>
     <use xlink:href="#m521d2ca590" x="357.042012" y="190.159366" style="fill: #ff7f0e; stroke: #ff7f0e; stroke-linejoin: miter"/>
     <use xlink:href="#m521d2ca590" x="363.949555" y="179.091997" style="fill: #ff7f0e; stroke: #ff7f0e; stroke-linejoin: miter"/>
     <use xlink:href="#m521d2ca590" x="370.857099" y="168.335185" style="fill: #ff7f0e; stroke: #ff7f0e; stroke-linejoin: miter"/>
     <use xlink:href="#m521d2ca590" x="377.764642" y="77.895992" style="fill: #ff7f0e; stroke: #ff7f0e; stroke-linejoin: miter"/>
     <use xlink:href="#m521d2ca590" x="384.672186" y="66.141127" style="fill: #ff7f0e; stroke: #ff7f0e; stroke-linejoin: miter"/>
     <use xlink:href="#m521d2ca590" x="391.579729" y="58.045927" style="fill: #ff7f0e; stroke: #ff7f0e; stroke-linejoin: miter"/>
     <use xlink:href="#m521d2ca590" x="398.487273" y="53.568" style="fill: #ff7f0e; stroke: #ff7f0e; stroke-linejoin: miter"/>
     <use xlink:href="#m521d2ca590" x="391.579729" y="61.015333" style="fill: #ff7f0e; stroke: #ff7f0e; stroke-linejoin: miter"/>
     <use xlink:href="#m521d2ca590" x="384.672186" y="67.050947" style="fill: #ff7f0e; stroke: #ff7f0e; stroke-linejoin: miter"/>
     <use xlink:href="#m521d2ca590" x="377.764642" y="77.888459" style="fill: #ff7f0e; stroke: #ff7f0e; stroke-linejoin: miter"/>
     <use xlink:href="#m521d2ca590" x="370.857099" y="94.033932" style="fill: #ff7f0e; stroke: #ff7f0e; stroke-linejoin: miter"/>
     <use xlink:href="#m521d2ca590" x="363.949555" y="178.209832" style="fill: #ff7f0e; stroke: #ff7f0e; stroke-linejoin: miter"/>
     <use xlink:href="#m521d2ca590" x="357.042012" y="189.795226" style="fill: #ff7f0e; stroke: #ff7f0e; stroke-linejoin: miter"/>
     <use xlink:href="#m521d2ca590" x="350.134468" y="199.226247" style="fill: #ff7f0e; stroke: #ff7f0e; stroke-linejoin: miter"/>
     <use xlink:href="#m521d2ca590" x="343.226925" y="205.128103" style="fill: #ff7f0e; stroke: #ff7f0e; stroke-linejoin: miter"/>
     <use xlink:href="#m521d2ca590" x="336.319381" y="210.755023" style="fill: #ff7f0e; stroke: #ff7f0e; stroke-linejoin: miter"/>
     <use xlink:href="#m521d2ca590" x="329.411838" y="215.313054" style="fill: #ff7f0e; stroke: #ff7f0e; stroke-linejoin: miter"/>
     <use xlink:href="#m521d2ca590" x="322.504294" y="219.960555" style="fill: #ff7f0e; stroke: #ff7f0e; stroke-linejoin: miter"/>
     <use xlink:href="#m521d2ca590" x="315.59675" y="224.65314" style="fill: #ff7f0e; stroke: #ff7f0e; stroke-linejoin: miter"/>
     <use xlink:href="#m521d2ca590" x="308.689207" y="228.623354" style="fill: #ff7f0e; stroke: #ff7f0e; stroke-linejoin: miter"/>
     <use xlink:href="#m521d2ca590" x="301.781663" y="232.860004" style="fill: #ff7f0e; stroke: #ff7f0e; stroke-linejoin: miter"/>
     <use xlink:href="#m521d2ca590" x="294.87412" y="237.352267" style="fill: #ff7f0e; stroke: #ff7f0e; stroke-linejoin: miter"/>
     <use xlink:href="#m521d2ca590" x="287.966576" y="241.655535" style="fill: #ff7f0e; stroke: #ff7f0e; stroke-linejoin: miter"/>
     <use xlink:href="#m521d2ca590" x="281.059033" y="245.462876" style="fill: #ff7f0e; stroke: #ff7f0e; stroke-linejoin: miter"/>
    </g>
   </g>
   <g id="line2d_44">
    <path d="M 73.832727 283.897535 
L 101.462901 292.938954 
L 115.277988 294.653033 
L 129.093075 295.488 
L 142.908162 295.365217 
L 156.72325 294.10157 
L 170.538337 290.136653 
L 184.353424 285.296745 
L 198.168511 279.485196 
L 211.983598 272.313528 
L 225.798685 263.321019 
L 239.613772 252.714988 
L 253.428859 241.284728 
L 267.243946 229.774755 
L 281.059033 216.374832 
L 294.87412 202.594538 
L 308.689207 195.492849 
L 322.504294 186.25648 
L 329.411838 179.194205 
L 336.319381 177.020895 
L 343.226925 176.446203 
L 350.134468 173.815665 
L 357.042012 176.335767 
L 363.949555 176.577323 
L 370.857099 181.316538 
L 377.764642 193.017856 
L 384.672186 201.188455 
L 391.579729 210.556827 
L 398.487273 216.818686 
L 391.579729 212.449026 
L 384.672186 202.692877 
L 377.764642 195.154456 
L 370.857099 185.304602 
L 363.949555 177.253651 
L 357.042012 176.284206 
L 350.134468 176.05109 
L 343.226925 174.649943 
L 336.319381 178.312514 
L 329.411838 180.154994 
L 322.504294 184.731225 
L 315.59675 189.647444 
L 308.689207 192.490407 
L 301.781663 197.371536 
L 294.87412 203.680654 
L 287.966576 210.696521 
L 281.059033 216.896218 
" clip-path="url(#pf215f755b8)" style="fill: none; stroke: #1f77b4; stroke-width: 1.5; stroke-linecap: square"/>
    <g clip-path="url(#pf215f755b8)">
     <use xlink:href="#m5a215d792c" x="73.832727" y="283.897535" style="fill: #1f77b4; stroke: #1f77b4"/>
     <use xlink:href="#m5a215d792c" x="101.462901" y="292.938954" style="fill: #1f77b4; stroke: #1f77b4"/>
     <use xlink:href="#m5a215d792c" x="115.277988" y="294.653033" style="fill: #1f77b4; stroke: #1f77b4"/>
     <use xlink:href="#m5a215d792c" x="129.093075" y="295.488" style="fill: #1f77b4; stroke: #1f77b4"/>
     <use xlink:href="#m5a215d792c" x="142.908162" y="295.365217" style="fill: #1f77b4; stroke: #1f77b4"/>
     <use xlink:href="#m5a215d792c" x="156.72325" y="294.10157" style="fill: #1f77b4; stroke: #1f77b4"/>
     <use xlink:href="#m5a215d792c" x="170.538337" y="290.136653" style="fill: #1f77b4; stroke: #1f77b4"/>
     <use xlink:href="#m5a215d792c" x="184.353424" y="285.296745" style="fill: #1f77b4; stroke: #1f77b4"/>
     <use xlink:href="#m5a215d792c" x="198.168511" y="279.485196" style="fill: #1f77b4; stroke: #1f77b4"/>
     <use xlink:href="#m5a215d792c" x="211.983598" y="272.313528" style="fill: #1f77b4; stroke: #1f77b4"/>
     <use xlink:href="#m5a215d792c" x="225.798685" y="263.321019" style="fill: #1f77b4; stroke: #1f77b4"/>
     <use xlink:href="#m5a215d792c" x="239.613772" y="252.714988" style="fill: #1f77b4; stroke: #1f77b4"/>
     <use xlink:href="#m5a215d792c" x="253.428859" y="241.284728" style="fill: #1f77b4; stroke: #1f77b4"/>
     <use xlink:href="#m5a215d792c" x="267.243946" y="229.774755" style="fill: #1f77b4; stroke: #1f77b4"/>
     <use xlink:href="#m5a215d792c" x="281.059033" y="216.374832" style="fill: #1f77b4; stroke: #1f77b4"/>
     <use xlink:href="#m5a215d792c" x="294.87412" y="202.594538" style="fill: #1f77b4; stroke: #1f77b4"/>
     <use xlink:href="#m5a215d792c" x="308.689207" y="195.492849" style="fill: #1f77b4; stroke: #1f77b4"/>
     <use xlink:href="#m5a215d792c" x="322.504294" y="186.25648" style="fill: #1f77b4; stroke: #1f77b4"/>
     <use xlink:href="#m5a215d792c" x="329.411838" y="179.194205" style="fill: #1f77b4; stroke: #1f77b4"/>
     <use xlink:href="#m5a215d792c" x="336.319381" y="177.020895" style="fill: #1f77b4; stroke: #1f77b4"/>
     <use xlink:href="#m5a215d792c" x="343.226925" y="176.446203" style="fill: #1f77b4; stroke: #1f77b4"/>
     <use xlink:href="#m5a215d792c" x="350.134468" y="173.815665" style="fill: #1f77b4; stroke: #1f77b4"/>
     <use xlink:href="#m5a215d792c" x="357.042012" y="176.335767" style="fill: #1f77b4; stroke: #1f77b4"/>
     <use xlink:href="#m5a215d792c" x="363.949555" y="176.577323" style="fill: #1f77b4; stroke: #1f77b4"/>
     <use xlink:href="#m5a215d792c" x="370.857099" y="181.316538" style="fill: #1f77b4; stroke: #1f77b4"/>
     <use xlink:href="#m5a215d792c" x="377.764642" y="193.017856" style="fill: #1f77b4; stroke: #1f77b4"/>
     <use xlink:href="#m5a215d792c" x="384.672186" y="201.188455" style="fill: #1f77b4; stroke: #1f77b4"/>
     <use xlink:href="#m5a215d792c" x="391.579729" y="210.556827" style="fill: #1f77b4; stroke: #1f77b4"/>
     <use xlink:href="#m5a215d792c" x="398.487273" y="216.818686" style="fill: #1f77b4; stroke: #1f77b4"/>
     <use xlink:href="#m5a215d792c" x="391.579729" y="212.449026" style="fill: #1f77b4; stroke: #1f77b4"/>
     <use xlink:href="#m5a215d792c" x="384.672186" y="202.692877" style="fill: #1f77b4; stroke: #1f77b4"/>
     <use xlink:href="#m5a215d792c" x="377.764642" y="195.154456" style="fill: #1f77b4; stroke: #1f77b4"/>
     <use xlink:href="#m5a215d792c" x="370.857099" y="185.304602" style="fill: #1f77b4; stroke: #1f77b4"/>
     <use xlink:href="#m5a215d792c" x="363.949555" y="177.253651" style="fill: #1f77b4; stroke: #1f77b4"/>
     <use xlink:href="#m5a215d792c" x="357.042012" y="176.284206" style="fill: #1f77b4; stroke: #1f77b4"/>
     <use xlink:href="#m5a215d792c" x="350.134468" y="176.05109" style="fill: #1f77b4; stroke: #1f77b4"/>
     <use xlink:href="#m5a215d792c" x="343.226925" y="174.649943" style="fill: #1f77b4; stroke: #1f77b4"/>
     <use xlink:href="#m5a215d792c" x="336.319381" y="178.312514" style="fill: #1f77b4; stroke: #1f77b4"/>
     <use xlink:href="#m5a215d792c" x="329.411838" y="180.154994" style="fill: #1f77b4; stroke: #1f77b4"/>
     <use xlink:href="#m5a215d792c" x="322.504294" y="184.731225" style="fill: #1f77b4; stroke: #1f77b4"/>
     <use xlink:href="#m5a215d792c" x="315.59675" y="189.647444" style="fill: #1f77b4; stroke: #1f77b4"/>
     <use xlink:href="#m5a215d792c" x="308.689207" y="192.490407" style="fill: #1f77b4; stroke: #1f77b4"/>
     <use xlink:href="#m5a215d792c" x="301.781663" y="197.371536" style="fill: #1f77b4; stroke: #1f77b4"/>
     <use xlink:href="#m5a215d792c" x="294.87412" y="203.680654" style="fill: #1f77b4; stroke: #1f77b4"/>
     <use xlink:href="#m5a215d792c" x="287.966576" y="210.696521" style="fill: #1f77b4; stroke: #1f77b4"/>
     <use xlink:href="#m5a215d792c" x="281.059033" y="216.896218" style="fill: #1f77b4; stroke: #1f77b4"/>
    </g>
   </g>
  </g>
 </g>
 <defs>
  <clipPath id="pf215f755b8">
   <rect x="57.6" y="41.472" width="357.12" height="266.112"/>
  </clipPath>
 </defs>
</svg>
